<?xml version="1.0" encoding="UTF-8"?><svg id="Layer_2" xmlns="http://www.w3.org/2000/svg" viewBox="0 0 966.85 403.93"><defs><style>.cls-1{fill:#f0f0f0;}.cls-2{fill:#f2bda2;}.cls-3{fill:#ffcaa6;}.cls-4{fill:#e5e5e5;}.cls-5{fill:#b3b3b3;}.cls-6{fill:#ccc;}.cls-7{fill:#c9c9c9;}.cls-8{fill:#d0d3d8;}.cls-9{fill:#acafb5;}.cls-10{fill:#838182;}.cls-11{fill:#757475;}.cls-12{fill:#4d4d4d;}</style></defs><g id="Layer_1-2"><rect class="cls-5" width="966.85" height="403.93"/><rect class="cls-7" width="966.85" height="20.15"/><rect class="cls-12" y="383.78" width="966.85" height="20.15"/><rect class="cls-1" x="20.15" y="20.15" width="926.55" height="363.64"/><polygon class="cls-12" points="946.7 40.29 20.15 40.29 20.15 303.2 100.64 303.2 100.64 363.64 866.21 363.64 866.21 303.2 946.7 303.2 946.7 40.29"/><polygon class="cls-9" points="775.55 323.34 765.47 323.34 755.4 323.34 745.33 323.34 735.26 323.34 725.18 323.34 725.18 333.42 725.18 343.49 735.26 343.49 745.33 343.49 755.4 343.49 765.47 343.49 775.55 343.49 785.62 343.49 785.62 333.42 785.62 323.34 775.55 323.34"/><polygon class="cls-8" points="775.55 303.2 765.47 303.2 755.4 303.2 745.33 303.2 735.26 303.2 725.18 303.2 725.18 313.27 725.18 323.34 735.26 323.34 745.33 323.34 755.4 323.34 765.47 323.34 775.55 323.34 785.62 323.34 785.62 313.27 785.62 303.2 775.55 303.2"/><polygon class="cls-9" points="835.99 323.34 825.91 323.34 815.84 323.34 805.77 323.34 805.77 333.42 805.77 343.49 815.84 343.49 825.91 343.49 835.99 343.49 846.06 343.49 846.06 333.42 846.06 323.34 835.99 323.34"/><polygon class="cls-8" points="835.99 303.2 825.91 303.2 815.84 303.2 805.77 303.2 805.77 313.27 805.77 323.34 815.84 323.34 825.91 323.34 835.99 323.34 846.06 323.34 846.06 313.27 846.06 303.2 835.99 303.2"/><polygon class="cls-8" points="231.59 303.2 221.52 303.2 211.45 303.2 201.37 303.2 191.3 303.2 181.23 303.2 181.23 313.27 181.23 323.34 191.3 323.34 201.37 323.34 211.45 323.34 221.52 323.34 231.59 323.34 241.67 323.34 241.67 313.27 241.67 303.2 231.59 303.2"/><polygon class="cls-9" points="231.59 323.34 221.52 323.34 211.45 323.34 201.37 323.34 191.3 323.34 181.23 323.34 181.23 333.42 181.23 343.49 191.3 343.49 201.37 343.49 211.45 343.49 221.52 343.49 231.59 343.49 241.67 343.49 241.67 333.42 241.67 323.34 231.59 323.34"/><polygon class="cls-4" points="694.96 303.2 684.89 303.2 674.82 303.2 664.74 303.2 654.67 303.2 644.6 303.2 634.52 303.2 624.45 303.2 614.38 303.2 604.3 303.2 594.23 303.2 584.16 303.2 574.08 303.2 564.01 303.2 553.94 303.2 543.86 303.2 533.79 303.2 523.72 303.2 513.64 303.2 503.57 303.2 493.5 303.2 483.42 303.2 473.35 303.2 463.28 303.2 453.2 303.2 443.13 303.2 433.06 303.2 422.98 303.2 412.91 303.2 402.84 303.2 392.76 303.2 382.69 303.2 372.62 303.2 362.54 303.2 352.47 303.2 342.4 303.2 332.33 303.2 322.25 303.2 312.18 303.2 302.1 303.2 292.03 303.2 281.96 303.2 271.89 303.2 261.81 303.2 261.81 313.27 261.81 323.34 271.89 323.34 281.96 323.34 292.03 323.34 302.1 323.34 312.18 323.34 322.25 323.34 332.33 323.34 342.4 323.34 352.47 323.34 362.54 323.34 372.62 323.34 382.69 323.34 392.76 323.34 402.84 323.34 412.91 323.34 422.98 323.34 433.06 323.34 443.13 323.34 453.2 323.34 463.28 323.34 473.35 323.34 483.42 323.34 493.5 323.34 503.57 323.34 513.64 323.34 523.72 323.34 533.79 323.34 543.86 323.34 553.94 323.34 564.01 323.34 574.08 323.34 584.16 323.34 594.23 323.34 604.3 323.34 614.38 323.34 624.45 323.34 634.52 323.34 644.6 323.34 654.67 323.34 664.74 323.34 674.82 323.34 684.89 323.34 694.96 323.34 705.04 323.34 705.04 313.27 705.04 303.2 694.96 303.2"/><polygon class="cls-6" points="694.96 323.34 684.89 323.34 674.82 323.34 664.74 323.34 654.67 323.34 644.6 323.34 634.52 323.34 624.45 323.34 614.38 323.34 604.3 323.34 594.23 323.34 584.16 323.34 574.08 323.34 564.01 323.34 553.94 323.34 543.86 323.34 533.79 323.34 523.72 323.34 513.64 323.34 503.57 323.34 493.5 323.34 483.42 323.34 473.35 323.34 463.28 323.34 453.2 323.34 443.13 323.34 433.06 323.34 422.98 323.34 412.91 323.34 402.84 323.34 392.76 323.34 382.69 323.34 372.62 323.34 362.54 323.34 352.47 323.34 342.4 323.34 332.33 323.34 322.25 323.34 312.18 323.34 302.1 323.34 292.03 323.34 281.96 323.34 271.89 323.34 261.81 323.34 261.81 333.42 261.81 343.49 271.89 343.49 281.96 343.49 292.03 343.49 302.1 343.49 312.18 343.49 322.25 343.49 332.33 343.49 342.4 343.49 352.47 343.49 362.54 343.49 372.62 343.49 382.69 343.49 392.76 343.49 402.84 343.49 412.91 343.49 422.98 343.49 433.06 343.49 443.13 343.49 453.2 343.49 463.28 343.49 473.35 343.49 483.42 343.49 493.5 343.49 503.57 343.49 513.64 343.49 523.72 343.49 533.79 343.49 543.86 343.49 553.94 343.49 564.01 343.49 574.08 343.49 584.16 343.49 594.23 343.49 604.3 343.49 614.38 343.49 624.45 343.49 634.52 343.49 644.6 343.49 654.67 343.49 664.74 343.49 674.82 343.49 684.89 343.49 694.96 343.49 705.04 343.49 705.04 333.42 705.04 323.34 694.96 323.34"/><polygon class="cls-8" points="151.01 303.2 140.93 303.2 130.86 303.2 120.79 303.2 120.79 313.27 120.79 323.34 130.86 323.34 140.93 323.34 151.01 323.34 161.08 323.34 161.08 313.27 161.08 303.2 151.01 303.2"/><polygon class="cls-9" points="151.01 323.34 140.93 323.34 130.86 323.34 120.79 323.34 120.79 333.42 120.79 343.49 130.86 343.49 140.93 343.49 151.01 343.49 161.08 343.49 161.08 333.42 161.08 323.34 151.01 323.34"/><polygon class="cls-9" points="916.48 262.9 906.41 262.9 896.33 262.9 886.26 262.9 886.26 272.98 886.26 283.05 896.33 283.05 906.41 283.05 916.48 283.05 926.55 283.05 926.55 272.98 926.55 262.9 916.48 262.9"/><polygon class="cls-8" points="916.48 242.76 906.41 242.76 896.33 242.76 886.26 242.76 886.26 252.83 886.26 262.9 896.33 262.9 906.41 262.9 916.48 262.9 926.55 262.9 926.55 252.83 926.55 242.76 916.48 242.76"/><polygon class="cls-4" points="614.3 60.44 604.23 60.44 594.16 60.44 584.08 60.44 584.08 70.51 584.08 80.59 594.16 80.59 604.23 80.59 614.3 80.59 624.38 80.59 624.38 70.51 624.38 60.44 614.3 60.44"/><polygon class="cls-6" points="614.3 80.59 604.23 80.59 594.16 80.59 584.08 80.59 584.08 90.66 584.08 100.73 594.16 100.73 604.23 100.73 614.3 100.73 624.38 100.73 624.38 90.66 624.38 80.59 614.3 80.59"/><polygon class="cls-4" points="553.89 60.44 543.81 60.44 533.74 60.44 523.67 60.44 523.67 70.51 523.67 80.59 533.74 80.59 543.81 80.59 553.89 80.59 563.96 80.59 563.96 70.51 563.96 60.44 553.89 60.44"/><polygon class="cls-6" points="553.89 80.59 543.81 80.59 533.74 80.59 523.67 80.59 523.67 90.66 523.67 100.73 533.74 100.73 543.81 100.73 553.89 100.73 563.96 100.73 563.96 90.66 563.96 80.59 553.89 80.59"/><polygon class="cls-4" points="493.47 60.44 483.39 60.44 473.32 60.44 463.25 60.44 463.25 70.51 463.25 80.59 473.32 80.59 483.39 80.59 493.47 80.59 503.54 80.59 503.54 70.51 503.54 60.44 493.47 60.44"/><polygon class="cls-6" points="493.47 80.59 483.39 80.59 473.32 80.59 463.25 80.59 463.25 90.66 463.25 100.73 473.32 100.73 483.39 100.73 493.47 100.73 503.54 100.73 503.54 90.66 503.54 80.59 493.47 80.59"/><polygon class="cls-4" points="433.05 60.44 422.97 60.44 412.9 60.44 402.83 60.44 402.83 70.51 402.83 80.59 412.9 80.59 422.97 80.59 433.05 80.59 443.12 80.59 443.12 70.51 443.12 60.44 433.05 60.44"/><polygon class="cls-6" points="433.05 80.59 422.97 80.59 412.9 80.59 402.83 80.59 402.83 90.66 402.83 100.73 412.9 100.73 422.97 100.73 433.05 100.73 443.12 100.73 443.12 90.66 443.12 80.59 433.05 80.59"/><polygon class="cls-4" points="372.63 60.44 362.55 60.44 352.48 60.44 342.41 60.44 342.41 70.51 342.41 80.59 352.48 80.59 362.55 80.59 372.63 80.59 382.7 80.59 382.7 70.51 382.7 60.44 372.63 60.44"/><polygon class="cls-6" points="372.63 80.59 362.55 80.59 352.48 80.59 342.41 80.59 342.41 90.66 342.41 100.73 352.48 100.73 362.55 100.73 372.63 100.73 382.7 100.73 382.7 90.66 382.7 80.59 372.63 80.59"/><polygon class="cls-4" points="312.21 60.44 302.14 60.44 292.06 60.44 281.99 60.44 281.99 70.51 281.99 80.59 292.06 80.59 302.14 80.59 312.21 80.59 322.28 80.59 322.28 70.51 322.28 60.44 312.21 60.44"/><polygon class="cls-6" points="312.21 80.59 302.14 80.59 292.06 80.59 281.99 80.59 281.99 90.66 281.99 100.73 292.06 100.73 302.14 100.73 312.21 100.73 322.28 100.73 322.28 90.66 322.28 80.59 312.21 80.59"/><polygon class="cls-4" points="251.79 60.44 241.72 60.44 231.64 60.44 221.57 60.44 221.57 70.51 221.57 80.59 231.64 80.59 241.72 80.59 251.79 80.59 261.86 80.59 261.86 70.51 261.86 60.44 251.79 60.44"/><polygon class="cls-6" points="251.79 80.59 241.72 80.59 231.64 80.59 221.57 80.59 221.57 90.66 221.57 100.73 231.64 100.73 241.72 100.73 251.79 100.73 261.86 100.73 261.86 90.66 261.86 80.59 251.79 80.59"/><polygon class="cls-4" points="191.37 60.44 181.3 60.44 171.22 60.44 161.15 60.44 161.15 70.51 161.15 80.59 171.22 80.59 181.3 80.59 191.37 80.59 201.44 80.59 201.44 70.51 201.44 60.44 191.37 60.44"/><polygon class="cls-6" points="191.37 80.59 181.3 80.59 171.22 80.59 161.15 80.59 161.15 90.66 161.15 100.73 171.22 100.73 181.3 100.73 191.37 100.73 201.44 100.73 201.44 90.66 201.44 80.59 191.37 80.59"/><polygon class="cls-4" points="674.72 60.44 664.65 60.44 654.58 60.44 644.5 60.44 644.5 70.51 644.5 80.59 654.58 80.59 664.65 80.59 674.72 80.59 684.8 80.59 684.8 70.51 684.8 60.44 674.72 60.44"/><polygon class="cls-6" points="674.72 80.59 664.65 80.59 654.58 80.59 644.5 80.59 644.5 90.66 644.5 100.73 654.58 100.73 664.65 100.73 674.72 100.73 684.8 100.73 684.8 90.66 684.8 80.59 674.72 80.59"/><polygon class="cls-4" points="130.95 60.44 120.88 60.44 110.81 60.44 100.73 60.44 100.73 70.51 100.73 80.59 110.81 80.59 120.88 80.59 130.95 80.59 141.03 80.59 141.03 70.51 141.03 60.44 130.95 60.44"/><polygon class="cls-6" points="130.95 80.59 120.88 80.59 110.81 80.59 100.73 80.59 100.73 90.66 100.73 100.73 110.81 100.73 120.88 100.73 130.95 100.73 141.03 100.73 141.03 90.66 141.03 80.59 130.95 80.59"/><polygon class="cls-10" points="483.42 181.32 473.35 181.32 463.28 181.32 453.2 181.32 453.2 191.39 453.2 201.47 463.28 201.47 473.35 201.47 483.42 201.47 493.5 201.47 493.5 191.39 493.5 181.32 483.42 181.32"/><polygon class="cls-11" points="483.42 201.47 473.35 201.47 463.28 201.47 453.2 201.47 453.2 211.54 453.2 221.61 463.28 221.61 473.35 221.61 483.42 221.61 493.5 221.61 493.5 211.54 493.5 201.47 483.42 201.47"/><polygon class="cls-10" points="670.73 181.32 660.66 181.32 650.58 181.32 640.51 181.32 640.51 191.39 640.51 201.47 650.58 201.47 660.66 201.47 670.73 201.47 680.8 201.47 680.8 191.39 680.8 181.32 670.73 181.32"/><polygon class="cls-11" points="670.73 201.47 660.66 201.47 650.58 201.47 640.51 201.47 640.51 211.54 640.51 221.61 650.58 221.61 660.66 221.61 670.73 221.61 680.8 221.61 680.8 211.54 680.8 201.47 670.73 201.47"/><rect class="cls-10" x="765.38" y="60.44" width="40.29" height="20.15"/><rect class="cls-11" x="765.38" y="80.59" width="40.29" height="20.15"/><rect class="cls-10" x="704.94" y="60.44" width="40.29" height="20.15"/><rect class="cls-11" x="704.94" y="80.59" width="40.29" height="20.15"/><rect class="cls-10" x="825.82" y="60.44" width="40.29" height="20.15"/><rect class="cls-11" x="825.82" y="80.59" width="40.29" height="20.15"/><rect class="cls-10" x="886.26" y="60.44" width="40.29" height="20.15"/><rect class="cls-11" x="886.26" y="80.59" width="40.29" height="20.15"/><rect class="cls-3" x="40.29" y="60.44" width="40.29" height="20.15"/><rect class="cls-2" x="40.29" y="80.59" width="40.29" height="20.15"/><polygon class="cls-8" points="110.81 181.32 100.73 181.32 90.66 181.32 80.59 181.32 70.51 181.32 60.44 181.32 50.37 181.32 40.29 181.32 40.29 191.39 40.29 201.47 50.37 201.47 60.44 201.47 70.51 201.47 80.59 201.47 90.66 201.47 100.73 201.47 110.81 201.47 120.88 201.47 120.88 191.39 120.88 181.32 110.81 181.32"/><polygon class="cls-9" points="110.81 201.47 100.73 201.47 90.66 201.47 80.59 201.47 70.51 201.47 60.44 201.47 50.37 201.47 40.29 201.47 40.29 211.54 40.29 221.61 50.37 221.61 60.44 221.61 70.51 221.61 80.59 221.61 90.66 221.61 100.73 221.61 110.81 221.61 120.88 221.61 120.88 211.54 120.88 201.47 110.81 201.47"/><polygon class="cls-8" points="130.95 241.76 120.88 241.76 110.81 241.76 100.73 241.76 90.66 241.76 80.59 241.76 70.51 241.76 60.44 241.76 50.37 241.76 40.29 241.76 40.29 251.83 40.29 261.9 50.37 261.9 60.44 261.9 70.51 261.9 80.59 261.9 90.66 261.9 100.73 261.9 110.81 261.9 120.88 261.9 130.95 261.9 141.03 261.9 141.03 251.83 141.03 241.76 130.95 241.76"/><polygon class="cls-9" points="130.95 261.9 120.88 261.9 110.81 261.9 100.73 261.9 90.66 261.9 80.59 261.9 70.51 261.9 60.44 261.9 50.37 261.9 40.29 261.9 40.29 271.98 40.29 282.05 50.37 282.05 60.44 282.05 70.51 282.05 80.59 282.05 90.66 282.05 100.73 282.05 110.81 282.05 120.88 282.05 130.95 282.05 141.03 282.05 141.03 271.98 141.03 261.9 130.95 261.9"/><polygon class="cls-8" points="916.48 120.88 906.41 120.88 896.33 120.88 886.26 120.88 876.19 120.88 866.12 120.88 866.12 130.95 866.12 141.03 876.19 141.03 886.26 141.03 896.33 141.03 906.41 141.03 916.48 141.03 926.55 141.03 926.55 130.95 926.55 120.88 916.48 120.88"/><polygon class="cls-9" points="916.48 141.03 906.41 141.03 896.33 141.03 886.26 141.03 876.19 141.03 866.12 141.03 866.12 151.1 866.12 161.17 876.19 161.17 886.26 161.17 896.33 161.17 906.41 161.17 916.48 161.17 926.55 161.17 926.55 151.1 926.55 141.03 916.48 141.03"/><polygon class="cls-8" points="90.66 120.88 80.59 120.88 70.51 120.88 60.44 120.88 50.37 120.88 40.29 120.88 40.29 130.95 40.29 141.03 50.37 141.03 60.44 141.03 70.51 141.03 80.59 141.03 90.66 141.03 100.73 141.03 100.73 130.95 100.73 120.88 90.66 120.88"/><polygon class="cls-9" points="90.66 141.03 80.59 141.03 70.51 141.03 60.44 141.03 50.37 141.03 40.29 141.03 40.29 151.1 40.29 161.17 50.37 161.17 60.44 161.17 70.51 161.17 80.59 161.17 90.66 161.17 100.73 161.17 100.73 151.1 100.73 141.03 90.66 141.03"/><polygon class="cls-8" points="856.04 242.76 845.97 242.76 835.89 242.76 825.82 242.76 815.75 242.76 805.68 242.76 795.6 242.76 785.53 242.76 785.53 252.83 785.53 262.9 795.6 262.9 805.68 262.9 815.75 262.9 825.82 262.9 835.89 262.9 845.97 262.9 856.04 262.9 866.12 262.9 866.12 252.83 866.12 242.76 856.04 242.76"/><polygon class="cls-9" points="856.04 262.9 845.97 262.9 835.89 262.9 825.82 262.9 815.75 262.9 805.68 262.9 795.6 262.9 785.53 262.9 785.53 272.98 785.53 283.05 795.6 283.05 805.68 283.05 815.75 283.05 825.82 283.05 835.89 283.05 845.97 283.05 856.04 283.05 866.12 283.05 866.12 272.98 866.12 262.9 856.04 262.9"/><rect class="cls-3" x="825.82" y="181.32" width="100.73" height="20.15"/><rect class="cls-2" x="825.82" y="201.47" width="100.73" height="20.15"/><polygon class="cls-4" points="773.64 120.88 763.57 120.88 753.49 120.88 743.42 120.88 743.42 130.95 743.42 141.03 753.49 141.03 763.57 141.03 773.64 141.03 783.71 141.03 783.71 130.95 783.71 120.88 773.64 120.88"/><polygon class="cls-6" points="773.64 141.03 763.57 141.03 753.49 141.03 743.42 141.03 743.42 151.1 743.42 161.17 753.49 161.17 763.57 161.17 773.64 161.17 783.71 161.17 783.71 151.1 783.71 141.03 773.64 141.03"/><polygon class="cls-4" points="711.39 120.88 701.31 120.88 691.24 120.88 681.17 120.88 681.17 130.95 681.17 141.03 691.24 141.03 701.31 141.03 711.39 141.03 721.46 141.03 721.46 130.95 721.46 120.88 711.39 120.88"/><polygon class="cls-6" points="711.39 141.03 701.31 141.03 691.24 141.03 681.17 141.03 681.17 151.1 681.17 161.17 691.24 161.17 701.31 161.17 711.39 161.17 721.46 161.17 721.46 151.1 721.46 141.03 711.39 141.03"/><polygon class="cls-4" points="649.13 120.88 639.06 120.88 628.99 120.88 618.91 120.88 618.91 130.95 618.91 141.03 628.99 141.03 639.06 141.03 649.13 141.03 659.21 141.03 659.21 130.95 659.21 120.88 649.13 120.88"/><polygon class="cls-6" points="649.13 141.03 639.06 141.03 628.99 141.03 618.91 141.03 618.91 151.1 618.91 161.17 628.99 161.17 639.06 161.17 649.13 161.17 659.21 161.17 659.21 151.1 659.21 141.03 649.13 141.03"/><polygon class="cls-4" points="586.88 120.88 576.81 120.88 566.73 120.88 556.66 120.88 556.66 130.95 556.66 141.03 566.73 141.03 576.81 141.03 586.88 141.03 596.95 141.03 596.95 130.95 596.95 120.88 586.88 120.88"/><polygon class="cls-6" points="586.88 141.03 576.81 141.03 566.73 141.03 556.66 141.03 556.66 151.1 556.66 161.17 566.73 161.17 576.81 161.17 586.88 161.17 596.95 161.17 596.95 151.1 596.95 141.03 586.88 141.03"/><polygon class="cls-4" points="524.62 120.88 514.55 120.88 504.48 120.88 494.4 120.88 494.4 130.95 494.4 141.03 504.48 141.03 514.55 141.03 524.62 141.03 534.7 141.03 534.7 130.95 534.7 120.88 524.62 120.88"/><polygon class="cls-6" points="524.62 141.03 514.55 141.03 504.48 141.03 494.4 141.03 494.4 151.1 494.4 161.17 504.48 161.17 514.55 161.17 524.62 161.17 534.7 161.17 534.7 151.1 534.7 141.03 524.62 141.03"/><polygon class="cls-4" points="462.37 120.88 452.3 120.88 442.22 120.88 432.15 120.88 432.15 130.95 432.15 141.03 442.22 141.03 452.3 141.03 462.37 141.03 472.44 141.03 472.44 130.95 472.44 120.88 462.37 120.88"/><polygon class="cls-6" points="462.37 141.03 452.3 141.03 442.22 141.03 432.15 141.03 432.15 151.1 432.15 161.17 442.22 161.17 452.3 161.17 462.37 161.17 472.44 161.17 472.44 151.1 472.44 141.03 462.37 141.03"/><polygon class="cls-4" points="400.12 120.88 390.04 120.88 379.97 120.88 369.9 120.88 369.9 130.95 369.9 141.03 379.97 141.03 390.04 141.03 400.12 141.03 410.19 141.03 410.19 130.95 410.19 120.88 400.12 120.88"/><polygon class="cls-6" points="400.12 141.03 390.04 141.03 379.97 141.03 369.9 141.03 369.9 151.1 369.9 161.17 379.97 161.17 390.04 161.17 400.12 161.17 410.19 161.17 410.19 151.1 410.19 141.03 400.12 141.03"/><polygon class="cls-4" points="337.86 120.88 327.79 120.88 317.72 120.88 307.64 120.88 307.64 130.95 307.64 141.03 317.72 141.03 327.79 141.03 337.86 141.03 347.93 141.03 347.93 130.95 347.93 120.88 337.86 120.88"/><polygon class="cls-6" points="337.86 141.03 327.79 141.03 317.72 141.03 307.64 141.03 307.64 151.1 307.64 161.17 317.72 161.17 327.79 161.17 337.86 161.17 347.93 161.17 347.93 151.1 347.93 141.03 337.86 141.03"/><polygon class="cls-4" points="275.61 120.88 265.53 120.88 255.46 120.88 245.39 120.88 245.39 130.95 245.39 141.03 255.46 141.03 265.53 141.03 275.61 141.03 285.68 141.03 285.68 130.95 285.68 120.88 275.61 120.88"/><polygon class="cls-6" points="275.61 141.03 265.53 141.03 255.46 141.03 245.39 141.03 245.39 151.1 245.39 161.17 255.46 161.17 265.53 161.17 275.61 161.17 285.68 161.17 285.68 151.1 285.68 141.03 275.61 141.03"/><polygon class="cls-4" points="213.35 120.88 203.28 120.88 193.21 120.88 183.13 120.88 183.13 130.95 183.13 141.03 193.21 141.03 203.28 141.03 213.35 141.03 223.43 141.03 223.43 130.95 223.43 120.88 213.35 120.88"/><polygon class="cls-6" points="213.35 141.03 203.28 141.03 193.21 141.03 183.13 141.03 183.13 151.1 183.13 161.17 193.21 161.17 203.28 161.17 213.35 161.17 223.43 161.17 223.43 151.1 223.43 141.03 213.35 141.03"/><polygon class="cls-4" points="835.9 120.88 825.82 120.88 815.75 120.88 805.68 120.88 805.68 130.95 805.68 141.03 815.75 141.03 825.82 141.03 835.9 141.03 845.97 141.03 845.97 130.95 845.97 120.88 835.9 120.88"/><polygon class="cls-6" points="835.9 141.03 825.82 141.03 815.75 141.03 805.68 141.03 805.68 151.1 805.68 161.17 815.75 161.17 825.82 161.17 835.9 161.17 845.97 161.17 845.97 151.1 845.97 141.03 835.9 141.03"/><polygon class="cls-4" points="151.1 120.88 141.03 120.88 130.95 120.88 120.88 120.88 120.88 130.95 120.88 141.03 130.95 141.03 141.03 141.03 151.1 141.03 161.17 141.03 161.17 130.95 161.17 120.88 151.1 120.88"/><polygon class="cls-6" points="151.1 141.03 141.03 141.03 130.95 141.03 120.88 141.03 120.88 151.1 120.88 161.17 130.95 161.17 141.03 161.17 151.1 161.17 161.17 161.17 161.17 151.1 161.17 141.03 151.1 141.03"/><polygon class="cls-4" points="733.17 181.32 723.09 181.32 713.02 181.32 702.95 181.32 702.95 191.39 702.95 201.47 713.02 201.47 723.09 201.47 733.17 201.47 743.24 201.47 743.24 191.39 743.24 181.32 733.17 181.32"/><polygon class="cls-6" points="733.17 201.47 723.09 201.47 713.02 201.47 702.95 201.47 702.95 211.54 702.95 221.61 713.02 221.61 723.09 221.61 733.17 221.61 743.24 221.61 743.24 211.54 743.24 201.47 733.17 201.47"/><polygon class="cls-4" points="795.6 181.32 785.53 181.32 775.46 181.32 765.38 181.32 765.38 191.39 765.38 201.47 775.46 201.47 785.53 201.47 795.6 201.47 805.68 201.47 805.68 191.39 805.68 181.32 795.6 181.32"/><polygon class="cls-6" points="795.6 201.47 785.53 201.47 775.46 201.47 765.38 201.47 765.38 211.54 765.38 221.61 775.46 221.61 785.53 221.61 795.6 221.61 805.68 221.61 805.68 211.54 805.68 201.47 795.6 201.47"/><polygon class="cls-4" points="233.68 181.32 223.61 181.32 213.53 181.32 203.46 181.32 203.46 191.39 203.46 201.47 213.53 201.47 223.61 201.47 233.68 201.47 243.75 201.47 243.75 191.39 243.75 181.32 233.68 181.32"/><polygon class="cls-6" points="233.68 201.47 223.61 201.47 213.53 201.47 203.46 201.47 203.46 211.54 203.46 221.61 213.53 221.61 223.61 221.61 233.68 221.61 243.75 221.61 243.75 211.54 243.75 201.47 233.68 201.47"/><polygon class="cls-4" points="545.86 181.32 535.79 181.32 525.71 181.32 515.64 181.32 515.64 191.39 515.64 201.47 525.71 201.47 535.79 201.47 545.86 201.47 555.93 201.47 555.93 191.39 555.93 181.32 545.86 181.32"/><polygon class="cls-6" points="545.86 201.47 535.79 201.47 525.71 201.47 515.64 201.47 515.64 211.54 515.64 221.61 525.71 221.61 535.79 221.61 545.86 221.61 555.93 221.61 555.93 211.54 555.93 201.47 545.86 201.47"/><polygon class="cls-4" points="608.29 181.32 598.22 181.32 588.15 181.32 578.08 181.32 578.08 191.39 578.08 201.47 588.15 201.47 598.22 201.47 608.29 201.47 618.37 201.47 618.37 191.39 618.37 181.32 608.29 181.32"/><polygon class="cls-6" points="608.29 201.47 598.22 201.47 588.15 201.47 578.08 201.47 578.08 211.54 578.08 221.61 588.15 221.61 598.22 221.61 608.29 221.61 618.37 221.61 618.37 211.54 618.37 201.47 608.29 201.47"/><polygon class="cls-4" points="420.99 181.32 410.91 181.32 400.84 181.32 390.77 181.32 390.77 191.39 390.77 201.47 400.84 201.47 410.91 201.47 420.99 201.47 431.06 201.47 431.06 191.39 431.06 181.32 420.99 181.32"/><polygon class="cls-6" points="420.99 201.47 410.91 201.47 400.84 201.47 390.77 201.47 390.77 211.54 390.77 221.61 400.84 221.61 410.91 221.61 420.99 221.61 431.06 221.61 431.06 211.54 431.06 201.47 420.99 201.47"/><polygon class="cls-4" points="358.55 181.32 348.48 181.32 338.41 181.32 328.33 181.32 328.33 191.39 328.33 201.47 338.41 201.47 348.48 201.47 358.55 201.47 368.63 201.47 368.63 191.39 368.63 181.32 358.55 181.32"/><polygon class="cls-6" points="358.55 201.47 348.48 201.47 338.41 201.47 328.33 201.47 328.33 211.54 328.33 221.61 338.41 221.61 348.48 221.61 358.55 221.61 368.63 221.61 368.63 211.54 368.63 201.47 358.55 201.47"/><polygon class="cls-4" points="296.12 181.32 286.04 181.32 275.97 181.32 265.9 181.32 265.9 191.39 265.9 201.47 275.97 201.47 286.04 201.47 296.12 201.47 306.19 201.47 306.19 191.39 306.19 181.32 296.12 181.32"/><polygon class="cls-6" points="296.12 201.47 286.04 201.47 275.97 201.47 265.9 201.47 265.9 211.54 265.9 221.61 275.97 221.61 286.04 221.61 296.12 221.61 306.19 221.61 306.19 211.54 306.19 201.47 296.12 201.47"/><polygon class="cls-4" points="191.39 241.76 181.32 241.76 171.25 241.76 161.17 241.76 161.17 251.83 161.17 261.9 171.25 261.9 181.32 261.9 191.39 261.9 201.47 261.9 201.47 251.83 201.47 241.76 191.39 241.76"/><polygon class="cls-6" points="191.39 261.9 181.32 261.9 171.25 261.9 161.17 261.9 161.17 271.98 161.17 282.05 171.25 282.05 181.32 282.05 191.39 282.05 201.47 282.05 201.47 271.98 201.47 261.9 191.39 261.9"/><polygon class="cls-4" points="254.05 241.76 243.98 241.76 233.9 241.76 223.83 241.76 223.83 251.83 223.83 261.9 233.9 261.9 243.98 261.9 254.05 261.9 264.12 261.9 264.12 251.83 264.12 241.76 254.05 241.76"/><polygon class="cls-6" points="254.05 261.9 243.98 261.9 233.9 261.9 223.83 261.9 223.83 271.98 223.83 282.05 233.9 282.05 243.98 282.05 254.05 282.05 264.12 282.05 264.12 271.98 264.12 261.9 254.05 261.9"/><polygon class="cls-4" points="316.71 241.76 306.63 241.76 296.56 241.76 286.49 241.76 286.49 251.83 286.49 261.9 296.56 261.9 306.63 261.9 316.71 261.9 326.78 261.9 326.78 251.83 326.78 241.76 316.71 241.76"/><polygon class="cls-6" points="316.71 261.9 306.63 261.9 296.56 261.9 286.49 261.9 286.49 271.98 286.49 282.05 296.56 282.05 306.63 282.05 316.71 282.05 326.78 282.05 326.78 271.98 326.78 261.9 316.71 261.9"/><polygon class="cls-4" points="379.36 241.76 369.29 241.76 359.22 241.76 349.14 241.76 349.14 251.83 349.14 261.9 359.22 261.9 369.29 261.9 379.36 261.9 389.44 261.9 389.44 251.83 389.44 241.76 379.36 241.76"/><polygon class="cls-6" points="379.36 261.9 369.29 261.9 359.22 261.9 349.14 261.9 349.14 271.98 349.14 282.05 359.22 282.05 369.29 282.05 379.36 282.05 389.44 282.05 389.44 271.98 389.44 261.9 379.36 261.9"/><polygon class="cls-4" points="442.02 241.76 431.95 241.76 421.88 241.76 411.8 241.76 411.8 251.83 411.8 261.9 421.88 261.9 431.95 261.9 442.02 261.9 452.09 261.9 452.09 251.83 452.09 241.76 442.02 241.76"/><polygon class="cls-6" points="442.02 261.9 431.95 261.9 421.88 261.9 411.8 261.9 411.8 271.98 411.8 282.05 421.88 282.05 431.95 282.05 442.02 282.05 452.09 282.05 452.09 271.98 452.09 261.9 442.02 261.9"/><polygon class="cls-4" points="504.68 241.76 494.61 241.76 484.53 241.76 474.46 241.76 474.46 251.83 474.46 261.9 484.53 261.9 494.61 261.9 504.68 261.9 514.75 261.9 514.75 251.83 514.75 241.76 504.68 241.76"/><polygon class="cls-6" points="504.68 261.9 494.61 261.9 484.53 261.9 474.46 261.9 474.46 271.98 474.46 282.05 484.53 282.05 494.61 282.05 504.68 282.05 514.75 282.05 514.75 271.98 514.75 261.9 504.68 261.9"/><polygon class="cls-4" points="567.34 241.76 557.26 241.76 547.19 241.76 537.12 241.76 537.12 251.83 537.12 261.9 547.19 261.9 557.26 261.9 567.34 261.9 577.41 261.9 577.41 251.83 577.41 241.76 567.34 241.76"/><polygon class="cls-6" points="567.34 261.9 557.26 261.9 547.19 261.9 537.12 261.9 537.12 271.98 537.12 282.05 547.19 282.05 557.26 282.05 567.34 282.05 577.41 282.05 577.41 271.98 577.41 261.9 567.34 261.9"/><polygon class="cls-4" points="629.99 241.76 619.92 241.76 609.85 241.76 599.77 241.76 599.77 251.83 599.77 261.9 609.85 261.9 619.92 261.9 629.99 261.9 640.07 261.9 640.07 251.83 640.07 241.76 629.99 241.76"/><polygon class="cls-6" points="629.99 261.9 619.92 261.9 609.85 261.9 599.77 261.9 599.77 271.98 599.77 282.05 609.85 282.05 619.92 282.05 629.99 282.05 640.07 282.05 640.07 271.98 640.07 261.9 629.99 261.9"/><polygon class="cls-4" points="692.65 241.76 682.58 241.76 672.51 241.76 662.43 241.76 662.43 251.83 662.43 261.9 672.51 261.9 682.58 261.9 692.65 261.9 702.72 261.9 702.72 251.83 702.72 241.76 692.65 241.76"/><polygon class="cls-6" points="692.65 261.9 682.58 261.9 672.51 261.9 662.43 261.9 662.43 271.98 662.43 282.05 672.51 282.05 682.58 282.05 692.65 282.05 702.72 282.05 702.72 271.98 702.72 261.9 692.65 261.9"/><polygon class="cls-4" points="171.25 181.32 161.17 181.32 151.1 181.32 141.03 181.32 141.03 191.39 141.03 201.47 151.1 201.47 161.17 201.47 171.25 201.47 181.32 201.47 181.32 191.39 181.32 181.32 171.25 181.32"/><polygon class="cls-6" points="171.25 201.47 161.17 201.47 151.1 201.47 141.03 201.47 141.03 211.54 141.03 221.61 151.1 221.61 161.17 221.61 171.25 221.61 181.32 221.61 181.32 211.54 181.32 201.47 171.25 201.47"/><polygon class="cls-4" points="755.31 242.76 745.24 242.76 735.16 242.76 725.09 242.76 725.09 252.83 725.09 262.9 735.16 262.9 745.24 262.9 755.31 262.9 765.38 262.9 765.38 252.83 765.38 242.76 755.31 242.76"/><polygon class="cls-6" points="755.31 262.9 745.24 262.9 735.16 262.9 725.09 262.9 725.09 272.98 725.09 283.05 735.16 283.05 745.24 283.05 755.31 283.05 765.38 283.05 765.38 272.98 765.38 262.9 755.31 262.9"/></g></svg>