<?xml version="1.0" encoding="UTF-8"?><svg id="Layer_2" xmlns="http://www.w3.org/2000/svg" viewBox="0 0 1116.47 503.67"><defs><style>.cls-1{fill:#e53e4e;}.cls-2{fill:#ff4560;}.cls-3{fill:#e5c67f;}.cls-4{fill:#ff6a75;}.cls-5{fill:#992c41;}.cls-6{fill:#ccb071;}.cls-7{fill:#cc3a4f;}.cls-8{fill:#c9ccc8;}.cls-9{fill:#d3d8d2;}.cls-10{fill:#37393a;}.cls-11{fill:#313233;}.cls-12{fill:#4d4d4d;}</style></defs><g id="Layer_1-2"><rect class="cls-7" width="1116.47" height="503.67"/><rect class="cls-2" x="21.9" y="21.9" width="1072.67" height="459.87"/><rect class="cls-12" x="21.9" y="43.8" width="1072.67" height="416.07"/><rect class="cls-9" x="43.8" y="131.39" width="10.95" height="10.95"/><rect class="cls-8" x="43.8" y="153.29" width="10.95" height="10.95"/><polygon class="cls-10" points="76.64 131.39 65.7 131.39 54.75 131.39 54.75 142.34 43.8 142.34 43.8 153.29 54.75 153.29 65.7 153.29 76.64 153.29 87.59 153.29 87.59 142.34 87.59 131.39 76.64 131.39"/><polygon class="cls-11" points="76.64 153.29 65.7 153.29 54.75 153.29 54.75 164.24 43.8 164.24 43.8 175.19 54.75 175.19 65.7 175.19 76.64 175.19 87.59 175.19 87.59 164.24 87.59 153.29 76.64 153.29"/><rect class="cls-9" x="109.49" y="131.39" width="10.95" height="10.95"/><rect class="cls-8" x="109.49" y="153.29" width="10.95" height="10.95"/><polygon class="cls-10" points="142.34 131.39 131.39 131.39 120.44 131.39 120.44 142.34 109.49 142.34 109.49 153.29 120.44 153.29 131.39 153.29 142.34 153.29 153.29 153.29 153.29 142.34 153.29 131.39 142.34 131.39"/><polygon class="cls-11" points="142.34 153.29 131.39 153.29 120.44 153.29 120.44 164.24 109.49 164.24 109.49 175.19 120.44 175.19 131.39 175.19 142.34 175.19 153.29 175.19 153.29 164.24 153.29 153.29 142.34 153.29"/><rect class="cls-9" x="175.19" y="131.39" width="10.95" height="10.95"/><rect class="cls-8" x="175.19" y="153.29" width="10.95" height="10.95"/><polygon class="cls-10" points="208.04 131.39 197.09 131.39 186.14 131.39 186.14 142.34 175.19 142.34 175.19 153.29 186.14 153.29 197.09 153.29 208.04 153.29 218.98 153.29 218.98 142.34 218.98 131.39 208.04 131.39"/><polygon class="cls-11" points="208.04 153.29 197.09 153.29 186.14 153.29 186.14 164.24 175.19 164.24 175.19 175.19 186.14 175.19 197.09 175.19 208.04 175.19 218.98 175.19 218.98 164.24 218.98 153.29 208.04 153.29"/><rect class="cls-9" x="240.88" y="131.39" width="10.95" height="10.95"/><rect class="cls-8" x="240.88" y="153.29" width="10.95" height="10.95"/><polygon class="cls-10" points="273.73 131.39 262.78 131.39 251.83 131.39 251.83 142.34 240.88 142.34 240.88 153.29 251.83 153.29 262.78 153.29 273.73 153.29 284.68 153.29 284.68 142.34 284.68 131.39 273.73 131.39"/><polygon class="cls-11" points="273.73 153.29 262.78 153.29 251.83 153.29 251.83 164.24 240.88 164.24 240.88 175.19 251.83 175.19 262.78 175.19 273.73 175.19 284.68 175.19 284.68 164.24 284.68 153.29 273.73 153.29"/><rect class="cls-9" x="306.58" y="131.39" width="10.95" height="10.95"/><rect class="cls-8" x="306.58" y="153.29" width="10.95" height="10.95"/><polygon class="cls-10" points="339.43 131.39 328.48 131.39 317.53 131.39 317.53 142.34 306.58 142.34 306.58 153.29 317.53 153.29 328.48 153.29 339.43 153.29 350.38 153.29 350.38 142.34 350.38 131.39 339.43 131.39"/><polygon class="cls-11" points="339.43 153.29 328.48 153.29 317.53 153.29 317.53 164.24 306.58 164.24 306.58 175.19 317.53 175.19 328.48 175.19 339.43 175.19 350.38 175.19 350.38 164.24 350.38 153.29 339.43 153.29"/><rect class="cls-9" x="372.27" y="131.39" width="10.95" height="10.95"/><rect class="cls-8" x="372.27" y="153.29" width="10.95" height="10.95"/><polygon class="cls-10" points="405.12 131.39 394.17 131.39 383.22 131.39 383.22 142.34 372.27 142.34 372.27 153.29 383.22 153.29 394.17 153.29 405.12 153.29 416.07 153.29 416.07 142.34 416.07 131.39 405.12 131.39"/><polygon class="cls-11" points="405.12 153.29 394.17 153.29 383.22 153.29 383.22 164.24 372.27 164.24 372.27 175.19 383.22 175.19 394.17 175.19 405.12 175.19 416.07 175.19 416.07 164.24 416.07 153.29 405.12 153.29"/><rect class="cls-9" x="437.97" y="131.39" width="10.95" height="10.95"/><rect class="cls-8" x="437.97" y="153.29" width="10.95" height="10.95"/><polygon class="cls-10" points="470.82 131.39 459.87 131.39 448.92 131.39 448.92 142.34 437.97 142.34 437.97 153.29 448.92 153.29 459.87 153.29 470.82 153.29 481.77 153.29 481.77 142.34 481.77 131.39 470.82 131.39"/><polygon class="cls-11" points="470.82 153.29 459.87 153.29 448.92 153.29 448.92 164.24 437.97 164.24 437.97 175.19 448.92 175.19 459.87 175.19 470.82 175.19 481.77 175.19 481.77 164.24 481.77 153.29 470.82 153.29"/><rect class="cls-9" x="503.66" y="131.39" width="10.95" height="10.95"/><rect class="cls-8" x="503.66" y="153.29" width="10.95" height="10.95"/><polygon class="cls-10" points="536.51 131.39 525.56 131.39 514.61 131.39 514.61 142.34 503.66 142.34 503.66 153.29 514.61 153.29 525.56 153.29 536.51 153.29 547.46 153.29 547.46 142.34 547.46 131.39 536.51 131.39"/><polygon class="cls-11" points="536.51 153.29 525.56 153.29 514.61 153.29 514.61 164.24 503.66 164.24 503.66 175.19 514.61 175.19 525.56 175.19 536.51 175.19 547.46 175.19 547.46 164.24 547.46 153.29 536.51 153.29"/><rect class="cls-9" x="569.36" y="131.39" width="10.95" height="10.95"/><rect class="cls-8" x="569.36" y="153.29" width="10.95" height="10.95"/><polygon class="cls-10" points="602.21 131.39 591.26 131.39 580.31 131.39 580.31 142.34 569.36 142.34 569.36 153.29 580.31 153.29 591.26 153.29 602.21 153.29 613.16 153.29 613.16 142.34 613.16 131.39 602.21 131.39"/><polygon class="cls-11" points="602.21 153.29 591.26 153.29 580.31 153.29 580.31 164.24 569.36 164.24 569.36 175.19 580.31 175.19 591.26 175.19 602.21 175.19 613.16 175.19 613.16 164.24 613.16 153.29 602.21 153.29"/><rect class="cls-9" x="635.06" y="131.39" width="10.95" height="10.95"/><rect class="cls-8" x="635.06" y="153.29" width="10.95" height="10.95"/><polygon class="cls-10" points="667.9 131.39 656.95 131.39 646 131.39 646 142.34 635.06 142.34 635.06 153.29 646 153.29 656.95 153.29 667.9 153.29 678.85 153.29 678.85 142.34 678.85 131.39 667.9 131.39"/><polygon class="cls-11" points="667.9 153.29 656.95 153.29 646 153.29 646 164.24 635.06 164.24 635.06 175.19 646 175.19 656.95 175.19 667.9 175.19 678.85 175.19 678.85 164.24 678.85 153.29 667.9 153.29"/><rect class="cls-9" x="700.75" y="131.39" width="10.95" height="10.95"/><rect class="cls-8" x="700.75" y="153.29" width="10.95" height="10.95"/><polygon class="cls-10" points="733.6 131.39 722.65 131.39 711.7 131.39 711.7 142.34 700.75 142.34 700.75 153.29 711.7 153.29 722.65 153.29 733.6 153.29 744.55 153.29 744.55 142.34 744.55 131.39 733.6 131.39"/><polygon class="cls-11" points="733.6 153.29 722.65 153.29 711.7 153.29 711.7 164.24 700.75 164.24 700.75 175.19 711.7 175.19 722.65 175.19 733.6 175.19 744.55 175.19 744.55 164.24 744.55 153.29 733.6 153.29"/><rect class="cls-9" x="766.45" y="131.39" width="10.95" height="10.95"/><rect class="cls-8" x="766.45" y="153.29" width="10.95" height="10.95"/><polygon class="cls-10" points="799.29 131.39 788.34 131.39 777.4 131.39 777.4 142.34 766.45 142.34 766.45 153.29 777.4 153.29 788.34 153.29 799.29 153.29 810.24 153.29 810.24 142.34 810.24 131.39 799.29 131.39"/><polygon class="cls-11" points="799.29 153.29 788.34 153.29 777.4 153.29 777.4 164.24 766.45 164.24 766.45 175.19 777.4 175.19 788.34 175.19 799.29 175.19 810.24 175.19 810.24 164.24 810.24 153.29 799.29 153.29"/><rect class="cls-9" x="832.14" y="131.39" width="10.95" height="10.95"/><rect class="cls-8" x="832.14" y="153.29" width="10.95" height="10.95"/><polygon class="cls-10" points="864.99 131.39 854.04 131.39 843.09 131.39 843.09 142.34 832.14 142.34 832.14 153.29 843.09 153.29 854.04 153.29 864.99 153.29 875.94 153.29 875.94 142.34 875.94 131.39 864.99 131.39"/><polygon class="cls-11" points="864.99 153.29 854.04 153.29 843.09 153.29 843.09 164.24 832.14 164.24 832.14 175.19 843.09 175.19 854.04 175.19 864.99 175.19 875.94 175.19 875.94 164.24 875.94 153.29 864.99 153.29"/><rect class="cls-9" x="875.74" y="197.09" width="10.95" height="10.95"/><rect class="cls-8" x="875.74" y="218.99" width="10.95" height="10.95"/><polygon class="cls-10" points="908.58 197.09 897.64 197.09 886.69 197.09 886.69 208.04 875.74 208.04 875.74 218.99 886.69 218.99 897.64 218.99 908.58 218.99 919.53 218.99 919.53 208.04 919.53 197.09 908.58 197.09"/><polygon class="cls-11" points="908.58 218.99 897.64 218.99 886.69 218.99 886.69 229.94 875.74 229.94 875.74 240.88 886.69 240.88 897.64 240.88 908.58 240.88 919.53 240.88 919.53 229.94 919.53 218.99 908.58 218.99"/><rect class="cls-9" x="788.69" y="328.48" width="10.95" height="10.95"/><rect class="cls-8" x="788.69" y="350.38" width="10.95" height="10.95"/><polygon class="cls-10" points="821.54 328.48 810.59 328.48 799.64 328.48 799.64 339.43 788.69 339.43 788.69 350.38 799.64 350.38 810.59 350.38 821.54 350.38 832.49 350.38 832.49 339.43 832.49 328.48 821.54 328.48"/><polygon class="cls-11" points="821.54 350.38 810.59 350.38 799.64 350.38 799.64 361.33 788.69 361.33 788.69 372.28 799.64 372.28 810.59 372.28 821.54 372.28 832.49 372.28 832.49 361.33 832.49 350.38 821.54 350.38"/><rect class="cls-9" x="657.2" y="328.48" width="10.95" height="10.95"/><rect class="cls-8" x="657.2" y="350.38" width="10.95" height="10.95"/><polygon class="cls-10" points="690.05 328.48 679.1 328.48 668.15 328.48 668.15 339.43 657.2 339.43 657.2 350.38 668.15 350.38 679.1 350.38 690.05 350.38 701 350.38 701 339.43 701 328.48 690.05 328.48"/><polygon class="cls-11" points="690.05 350.38 679.1 350.38 668.15 350.38 668.15 361.33 657.2 361.33 657.2 372.28 668.15 372.28 679.1 372.28 690.05 372.28 701 372.28 701 361.33 701 350.38 690.05 350.38"/><rect class="cls-9" x="722.95" y="328.48" width="10.95" height="10.95"/><rect class="cls-8" x="722.95" y="350.38" width="10.95" height="10.95"/><polygon class="cls-10" points="755.8 328.48 744.85 328.48 733.9 328.48 733.9 339.43 722.95 339.43 722.95 350.38 733.9 350.38 744.85 350.38 755.8 350.38 766.74 350.38 766.74 339.43 766.74 328.48 755.8 328.48"/><polygon class="cls-11" points="755.8 350.38 744.85 350.38 733.9 350.38 733.9 361.33 722.95 361.33 722.95 372.28 733.9 372.28 744.85 372.28 755.8 372.28 766.74 372.28 766.74 361.33 766.74 350.38 755.8 350.38"/><rect class="cls-9" x="744.78" y="262.78" width="10.95" height="10.95"/><rect class="cls-8" x="744.78" y="284.68" width="10.95" height="10.95"/><polygon class="cls-10" points="777.63 262.78 766.68 262.78 755.73 262.78 755.73 273.73 744.78 273.73 744.78 284.68 755.73 284.68 766.68 284.68 777.63 284.68 788.58 284.68 788.58 273.73 788.58 262.78 777.63 262.78"/><polygon class="cls-11" points="777.63 284.68 766.68 284.68 755.73 284.68 755.73 295.63 744.78 295.63 744.78 306.58 755.73 306.58 766.68 306.58 777.63 306.58 788.58 306.58 788.58 295.63 788.58 284.68 777.63 284.68"/><rect class="cls-9" x="808.07" y="262.78" width="10.95" height="10.95"/><rect class="cls-8" x="808.07" y="284.68" width="10.95" height="10.95"/><polygon class="cls-10" points="840.92 262.78 829.97 262.78 819.02 262.78 819.02 273.73 808.07 273.73 808.07 284.68 819.02 284.68 829.97 284.68 840.92 284.68 851.87 284.68 851.87 273.73 851.87 262.78 840.92 262.78"/><polygon class="cls-11" points="840.92 284.68 829.97 284.68 819.02 284.68 819.02 295.63 808.07 295.63 808.07 306.58 819.02 306.58 829.97 306.58 840.92 306.58 851.87 306.58 851.87 295.63 851.87 284.68 840.92 284.68"/><rect class="cls-9" x="808.07" y="197.09" width="10.95" height="10.95"/><rect class="cls-8" x="808.07" y="218.99" width="10.95" height="10.95"/><polygon class="cls-10" points="840.92 197.09 829.97 197.09 819.02 197.09 819.02 208.04 808.07 208.04 808.07 218.99 819.02 218.99 829.97 218.99 840.92 218.99 851.87 218.99 851.87 208.04 851.87 197.09 840.92 197.09"/><polygon class="cls-11" points="840.92 218.99 829.97 218.99 819.02 218.99 819.02 229.94 808.07 229.94 808.07 240.88 819.02 240.88 829.97 240.88 840.92 240.88 851.87 240.88 851.87 229.94 851.87 218.99 840.92 218.99"/><rect class="cls-9" x="1039.98" y="208.04" width="10.95" height="10.95" transform="translate(2090.9 427.02) rotate(180)"/><polygon class="cls-11" points="1061.87 218.99 1050.92 218.99 1039.98 218.99 1029.03 218.99 1029.03 229.94 1029.03 240.88 1039.98 240.88 1050.92 240.88 1061.87 240.88 1072.82 240.88 1072.82 229.94 1072.82 218.99 1061.87 218.99"/><rect class="cls-9" x="1029.03" y="208.04" width="10.95" height="10.95" transform="translate(2069 427.02) rotate(180)"/><polygon class="cls-10" points="1061.87 197.09 1050.92 197.09 1039.98 197.09 1029.03 197.09 1029.03 208.04 1039.98 208.04 1050.92 208.04 1050.92 218.99 1061.87 218.99 1072.82 218.99 1072.82 208.04 1072.82 197.09 1061.87 197.09"/><rect class="cls-9" x="1039.98" y="273.73" width="10.95" height="10.95" transform="translate(2090.9 558.41) rotate(180)"/><polygon class="cls-11" points="1061.87 284.68 1050.92 284.68 1039.98 284.68 1029.03 284.68 1029.03 295.63 1029.03 306.58 1039.98 306.58 1050.92 306.58 1061.87 306.58 1072.82 306.58 1072.82 295.63 1072.82 284.68 1061.87 284.68"/><rect class="cls-9" x="1029.03" y="273.73" width="10.95" height="10.95" transform="translate(2069 558.41) rotate(180)"/><polygon class="cls-10" points="1061.87 262.78 1050.92 262.78 1039.98 262.78 1029.03 262.78 1029.03 273.73 1039.98 273.73 1050.92 273.73 1050.92 284.68 1061.87 284.68 1072.82 284.68 1072.82 273.73 1072.82 262.78 1061.87 262.78"/><rect class="cls-9" x="1039.98" y="339.43" width="10.95" height="10.95" transform="translate(2090.9 689.8) rotate(180)"/><polygon class="cls-11" points="1061.87 350.38 1050.92 350.38 1039.98 350.38 1029.03 350.38 1029.03 361.33 1029.03 372.28 1039.98 372.28 1050.92 372.28 1061.87 372.28 1072.82 372.28 1072.82 361.33 1072.82 350.38 1061.87 350.38"/><rect class="cls-9" x="1029.03" y="339.43" width="10.95" height="10.95" transform="translate(2069 689.8) rotate(180)"/><polygon class="cls-10" points="1061.87 328.48 1050.92 328.48 1039.98 328.48 1029.03 328.48 1029.03 339.43 1039.98 339.43 1050.92 339.43 1050.92 350.38 1061.87 350.38 1072.82 350.38 1072.82 339.43 1072.82 328.48 1061.87 328.48"/><polygon class="cls-11" points="1061.87 153.29 1050.92 153.29 1039.98 153.29 1029.03 153.29 1029.03 164.24 1029.03 175.19 1039.98 175.19 1050.92 175.19 1061.87 175.19 1072.82 175.19 1072.82 164.24 1072.82 153.29 1061.87 153.29"/><polygon class="cls-9" points="1039.98 142.34 1029.03 142.34 1029.03 153.29 1039.98 153.29 1050.92 153.29 1050.92 142.34 1039.98 142.34"/><polygon class="cls-10" points="1061.87 131.39 1050.92 131.39 1039.98 131.39 1029.03 131.39 1029.03 142.34 1039.98 142.34 1050.92 142.34 1050.92 153.29 1061.87 153.29 1072.82 153.29 1072.82 142.34 1072.82 131.39 1061.87 131.39"/><polygon class="cls-9" points="946.09 284.68 956.27 284.68 966.43 284.68 966.44 284.68 976.6 284.68 986.78 284.68 996.95 284.68 1007.13 284.68 1007.13 273.73 1007.13 262.78 996.95 262.78 986.78 262.78 976.6 262.78 966.44 262.78 966.43 262.78 956.27 262.78 946.09 262.78 936.78 262.78 926.61 262.78 916.43 262.78 906.26 262.78 896.09 262.78 885.91 262.78 875.74 262.78 875.74 273.73 885.91 273.73 896.09 273.73 906.26 273.73 916.43 273.73 926.61 273.73 936.78 273.73 936.78 284.68 946.09 284.68"/><polygon class="cls-10" points="930.48 273.73 919.53 273.73 908.58 273.73 897.64 273.73 886.69 273.73 875.74 273.73 875.74 284.68 886.69 284.68 897.64 284.68 908.58 284.68 919.53 284.68 930.48 284.68 941.43 284.68 941.43 273.73 930.48 273.73"/><polygon class="cls-8" points="941.43 284.68 930.48 284.68 919.53 284.68 908.58 284.68 897.64 284.68 886.69 284.68 875.74 284.68 875.74 295.63 875.74 306.58 886.69 306.58 897.64 306.58 908.58 306.58 919.53 306.58 930.48 306.58 941.43 306.58 951.36 306.58 960.66 306.58 969.94 306.58 969.95 306.58 979.24 306.58 988.54 306.58 997.83 306.58 1007.13 306.58 1007.13 295.63 1007.13 284.68 997.83 284.68 988.54 284.68 979.24 284.68 969.95 284.68 969.94 284.68 960.66 284.68 951.36 284.68 941.43 284.68"/><polygon class="cls-10" points="941.45 142.34 952.4 142.34 963.33 142.34 963.34 142.34 974.28 142.34 974.28 153.29 985.23 153.29 996.18 153.29 1007.13 153.29 1007.13 142.34 1007.13 131.39 996.18 131.39 985.23 131.39 974.28 131.39 963.34 131.39 963.33 131.39 952.4 131.39 941.45 131.39 919.53 131.39 908.58 131.39 897.64 131.39 897.64 142.34 897.64 153.29 908.58 153.29 908.58 142.34 919.53 142.34 941.45 142.34"/><polyline class="cls-9" points="939.44 153.29 952.4 153.29 963.33 153.29 963.34 153.29 974.28 153.29 974.28 142.34 963.34 142.34 963.33 142.34 952.4 142.34 941.45 142.34 940.43 142.34 930.48 142.34 919.53 142.34 908.58 142.34 908.58 153.29 919.53 153.29 930.48 153.29 943.43 153.29"/><polygon class="cls-11" points="938.43 175.19 930.48 175.19 919.53 175.19 908.58 175.19 897.64 175.19 897.64 164.24 897.64 153.29 908.58 153.29 919.53 153.29 930.48 153.29 939.43 153.29 941.45 153.29 952.4 153.29 963.33 153.29 963.34 153.29 974.28 153.29 985.23 153.29 996.18 153.29 1007.13 153.29 1007.13 164.24 1007.13 175.19 996.18 175.19 985.23 175.19 974.28 175.19 963.34 175.19 963.33 175.19 952.4 175.19 941.45 175.19 938.43 175.19"/><rect class="cls-9" x="831.77" y="76.65" width="10.95" height="10.95"/><polygon class="cls-10" points="864.62 65.7 853.67 65.7 842.72 65.7 831.77 65.7 831.77 76.65 842.72 76.65 842.72 87.6 853.67 87.6 864.62 87.6 875.57 87.6 875.57 76.65 875.57 65.7 864.62 65.7"/><polygon class="cls-11" points="864.62 87.6 853.67 87.6 842.72 87.6 831.77 87.6 831.77 98.54 831.77 109.49 842.72 109.49 853.67 109.49 864.62 109.49 875.57 109.49 875.57 98.54 875.57 87.6 864.62 87.6"/><rect class="cls-9" x="175.15" y="76.65" width="10.95" height="10.95"/><polygon class="cls-10" points="208 65.7 197.05 65.7 186.1 65.7 175.15 65.7 175.15 76.65 186.1 76.65 186.1 87.6 197.05 87.6 208 87.6 218.95 87.6 218.95 76.65 218.95 65.7 208 65.7"/><polygon class="cls-11" points="208 87.6 197.05 87.6 186.1 87.6 175.15 87.6 175.15 98.54 175.15 109.49 186.1 109.49 197.05 109.49 208 109.49 218.95 109.49 218.95 98.54 218.95 87.6 208 87.6"/><rect class="cls-9" x="240.82" y="76.65" width="10.95" height="10.95"/><polygon class="cls-10" points="273.66 65.7 262.71 65.7 251.76 65.7 240.82 65.7 240.82 76.65 251.76 76.65 251.76 87.6 262.71 87.6 273.66 87.6 284.61 87.6 284.61 76.65 284.61 65.7 273.66 65.7"/><polygon class="cls-11" points="273.66 87.6 262.71 87.6 251.76 87.6 240.82 87.6 240.82 98.54 240.82 109.49 251.76 109.49 262.71 109.49 273.66 109.49 284.61 109.49 284.61 98.54 284.61 87.6 273.66 87.6"/><rect class="cls-9" x="306.48" y="76.65" width="10.95" height="10.95"/><polygon class="cls-10" points="339.33 65.7 328.38 65.7 317.43 65.7 306.48 65.7 306.48 76.65 317.43 76.65 317.43 87.6 328.38 87.6 339.33 87.6 350.27 87.6 350.27 76.65 350.27 65.7 339.33 65.7"/><polygon class="cls-11" points="339.33 87.6 328.38 87.6 317.43 87.6 306.48 87.6 306.48 98.54 306.48 109.49 317.43 109.49 328.38 109.49 339.33 109.49 350.27 109.49 350.27 98.54 350.27 87.6 339.33 87.6"/><rect class="cls-9" x="372.14" y="76.65" width="10.95" height="10.95"/><polygon class="cls-10" points="404.99 65.7 394.04 65.7 383.09 65.7 372.14 65.7 372.14 76.65 383.09 76.65 383.09 87.6 394.04 87.6 404.99 87.6 415.94 87.6 415.94 76.65 415.94 65.7 404.99 65.7"/><polygon class="cls-11" points="404.99 87.6 394.04 87.6 383.09 87.6 372.14 87.6 372.14 98.54 372.14 109.49 383.09 109.49 394.04 109.49 404.99 109.49 415.94 109.49 415.94 98.54 415.94 87.6 404.99 87.6"/><rect class="cls-9" x="437.8" y="76.65" width="10.95" height="10.95"/><polygon class="cls-10" points="470.65 65.7 459.7 65.7 448.75 65.7 437.8 65.7 437.8 76.65 448.75 76.65 448.75 87.6 459.7 87.6 470.65 87.6 481.6 87.6 481.6 76.65 481.6 65.7 470.65 65.7"/><polygon class="cls-11" points="470.65 87.6 459.7 87.6 448.75 87.6 437.8 87.6 437.8 98.54 437.8 109.49 448.75 109.49 459.7 109.49 470.65 109.49 481.6 109.49 481.6 98.54 481.6 87.6 470.65 87.6"/><rect class="cls-9" x="503.46" y="76.65" width="10.95" height="10.95"/><polygon class="cls-10" points="536.31 65.7 525.36 65.7 514.41 65.7 503.46 65.7 503.46 76.65 514.41 76.65 514.41 87.6 525.36 87.6 536.31 87.6 547.26 87.6 547.26 76.65 547.26 65.7 536.31 65.7"/><polygon class="cls-11" points="536.31 87.6 525.36 87.6 514.41 87.6 503.46 87.6 503.46 98.54 503.46 109.49 514.41 109.49 525.36 109.49 536.31 109.49 547.26 109.49 547.26 98.54 547.26 87.6 536.31 87.6"/><rect class="cls-9" x="569.12" y="76.65" width="10.95" height="10.95"/><polygon class="cls-10" points="601.97 65.7 591.02 65.7 580.07 65.7 569.12 65.7 569.12 76.65 580.07 76.65 580.07 87.6 591.02 87.6 601.97 87.6 612.92 87.6 612.92 76.65 612.92 65.7 601.97 65.7"/><polygon class="cls-11" points="601.97 87.6 591.02 87.6 580.07 87.6 569.12 87.6 569.12 98.54 569.12 109.49 580.07 109.49 591.02 109.49 601.97 109.49 612.92 109.49 612.92 98.54 612.92 87.6 601.97 87.6"/><rect class="cls-9" x="634.79" y="76.65" width="10.95" height="10.95"/><polygon class="cls-10" points="667.63 65.7 656.69 65.7 645.74 65.7 634.79 65.7 634.79 76.65 645.74 76.65 645.74 87.6 656.69 87.6 667.63 87.6 678.58 87.6 678.58 76.65 678.58 65.7 667.63 65.7"/><polygon class="cls-11" points="667.63 87.6 656.69 87.6 645.74 87.6 634.79 87.6 634.79 98.54 634.79 109.49 645.74 109.49 656.69 109.49 667.63 109.49 678.58 109.49 678.58 98.54 678.58 87.6 667.63 87.6"/><rect class="cls-9" x="700.45" y="76.65" width="10.95" height="10.95"/><polygon class="cls-10" points="733.3 65.7 722.35 65.7 711.4 65.7 700.45 65.7 700.45 76.65 711.4 76.65 711.4 87.6 722.35 87.6 733.3 87.6 744.25 87.6 744.25 76.65 744.25 65.7 733.3 65.7"/><polygon class="cls-11" points="733.3 87.6 722.35 87.6 711.4 87.6 700.45 87.6 700.45 98.54 700.45 109.49 711.4 109.49 722.35 109.49 733.3 109.49 744.25 109.49 744.25 98.54 744.25 87.6 733.3 87.6"/><rect class="cls-9" x="766.11" y="76.65" width="10.95" height="10.95"/><polygon class="cls-10" points="798.96 65.7 788.01 65.7 777.06 65.7 766.11 65.7 766.11 76.65 777.06 76.65 777.06 87.6 788.01 87.6 798.96 87.6 809.91 87.6 809.91 76.65 809.91 65.7 798.96 65.7"/><polygon class="cls-11" points="798.96 87.6 788.01 87.6 777.06 87.6 766.11 87.6 766.11 98.54 766.11 109.49 777.06 109.49 788.01 109.49 798.96 109.49 809.91 109.49 809.91 98.54 809.91 87.6 798.96 87.6"/><rect class="cls-9" x="109.49" y="76.65" width="10.95" height="10.95"/><polygon class="cls-10" points="142.34 65.7 131.39 65.7 120.44 65.7 109.49 65.7 109.49 76.65 120.44 76.65 120.44 87.6 131.39 87.6 142.34 87.6 153.29 87.6 153.29 76.65 153.29 65.7 142.34 65.7"/><polygon class="cls-11" points="142.34 87.6 131.39 87.6 120.44 87.6 109.49 87.6 109.49 98.54 109.49 109.49 120.44 109.49 131.39 109.49 142.34 109.49 153.29 109.49 153.29 98.54 153.29 87.6 142.34 87.6"/><polygon class="cls-9" points="711.4 405.12 700.45 405.12 700.45 416.07 711.4 416.07 722.35 416.07 722.35 405.12 711.4 405.12"/><polygon class="cls-10" points="733.3 394.17 722.35 394.17 711.4 394.17 700.45 394.17 700.45 405.12 711.4 405.12 722.35 405.12 722.35 416.07 733.3 416.07 744.25 416.07 744.25 405.12 744.25 394.17 733.3 394.17"/><polygon class="cls-11" points="733.3 416.07 722.35 416.07 711.4 416.07 700.45 416.07 700.45 427.02 700.45 437.97 711.4 437.97 722.35 437.97 733.3 437.97 744.25 437.97 744.25 427.02 744.25 416.07 733.3 416.07"/><polygon class="cls-10" points="1061.87 405.12 1050.92 405.12 1050.92 416.07 1061.87 416.07 1072.82 416.07 1072.82 405.12 1061.87 405.12"/><polygon class="cls-8" points="1061.87 416.07 1050.92 416.07 1039.98 416.07 1029.03 416.07 1029.03 427.02 1029.03 437.97 1039.98 437.97 1050.92 437.97 1061.87 437.97 1072.82 437.97 1072.82 427.02 1072.82 416.07 1061.87 416.07"/><polygon class="cls-9" points="1061.87 394.17 1050.92 394.17 1039.98 394.17 1029.03 394.17 1029.03 405.12 1029.03 416.07 1039.98 416.07 1050.92 416.07 1050.92 405.12 1061.87 405.12 1072.82 405.12 1072.82 394.17 1061.87 394.17"/><rect class="cls-9" x="831.77" y="405.12" width="10.95" height="10.95"/><polygon class="cls-10" points="864.62 394.17 853.67 394.17 842.72 394.17 831.77 394.17 831.77 405.12 842.72 405.12 842.72 416.07 853.67 416.07 864.62 416.07 875.57 416.07 875.57 405.12 875.57 394.17 864.62 394.17"/><polygon class="cls-11" points="864.62 416.07 853.67 416.07 842.72 416.07 831.77 416.07 831.77 427.02 831.77 437.97 842.72 437.97 853.67 437.97 864.62 437.97 875.57 437.97 875.57 427.02 875.57 416.07 864.62 416.07"/><rect class="cls-9" x="766.11" y="405.12" width="10.95" height="10.95"/><polygon class="cls-10" points="798.96 394.17 788.01 394.17 777.06 394.17 766.11 394.17 766.11 405.12 777.06 405.12 777.06 416.07 788.01 416.07 798.96 416.07 809.91 416.07 809.91 405.12 809.91 394.17 798.96 394.17"/><polygon class="cls-11" points="798.96 416.07 788.01 416.07 777.06 416.07 766.11 416.07 766.11 427.02 766.11 437.97 777.06 437.97 788.01 437.97 798.96 437.97 809.91 437.97 809.91 427.02 809.91 416.07 798.96 416.07"/><polygon class="cls-10" points="908.58 405.12 897.64 405.12 897.64 416.07 908.58 416.07 919.53 416.07 919.53 405.12 908.58 405.12"/><polygon class="cls-9" points="930.48 394.17 919.53 394.17 908.58 394.17 897.64 394.17 897.64 405.12 908.58 405.12 919.53 405.12 919.53 416.07 930.48 416.07 941.43 416.07 941.43 405.12 941.43 394.17 930.48 394.17"/><polygon class="cls-8" points="930.48 416.07 919.53 416.07 908.58 416.07 897.64 416.07 897.64 427.02 897.64 437.97 908.58 437.97 919.53 437.97 930.48 437.97 941.43 437.97 941.43 427.02 941.43 416.07 930.48 416.07"/><polygon class="cls-9" points="974.28 76.65 963.33 76.65 963.33 87.6 974.28 87.6 985.23 87.6 985.23 76.65 974.28 76.65"/><polygon class="cls-10" points="996.18 65.7 985.23 65.7 974.28 65.7 963.33 65.7 963.33 76.65 974.28 76.65 985.23 76.65 985.23 87.6 996.18 87.6 1007.13 87.6 1007.13 76.65 1007.13 65.7 996.18 65.7"/><polygon class="cls-11" points="996.18 87.6 985.23 87.6 974.28 87.6 963.33 87.6 963.33 98.54 963.33 109.49 974.28 109.49 985.23 109.49 996.18 109.49 1007.13 109.49 1007.13 98.54 1007.13 87.6 996.18 87.6"/><polygon class="cls-11" points="1061.87 87.6 1050.92 87.6 1039.98 87.6 1029.03 87.6 1029.03 98.54 1029.03 109.49 1039.98 109.49 1050.92 109.49 1061.87 109.49 1072.82 109.49 1072.82 98.54 1072.82 87.6 1061.87 87.6"/><polygon class="cls-9" points="1039.98 76.65 1029.03 76.65 1029.03 87.6 1039.98 87.6 1050.92 87.6 1050.92 76.65 1039.98 76.65"/><polygon class="cls-10" points="1061.87 65.7 1050.92 65.7 1039.98 65.7 1029.03 65.7 1029.03 76.65 1039.98 76.65 1050.92 76.65 1050.92 87.6 1061.87 87.6 1072.82 87.6 1072.82 76.65 1072.82 65.7 1061.87 65.7"/><polygon class="cls-9" points="908.58 76.65 897.64 76.65 897.64 87.6 908.58 87.6 919.53 87.6 919.53 76.65 908.58 76.65"/><polygon class="cls-10" points="930.48 65.7 919.53 65.7 908.58 65.7 897.64 65.7 897.64 76.65 908.58 76.65 919.53 76.65 919.53 87.6 930.48 87.6 941.43 87.6 941.43 76.65 941.43 65.7 930.48 65.7"/><polygon class="cls-11" points="930.48 87.6 919.53 87.6 908.58 87.6 897.64 87.6 897.64 98.54 897.64 109.49 908.58 109.49 919.53 109.49 930.48 109.49 941.43 109.49 941.43 98.54 941.43 87.6 930.48 87.6"/><polygon class="cls-3" points="65.7 76.65 54.75 76.65 54.75 87.6 65.7 87.6 76.64 87.6 76.64 76.65 65.7 76.65"/><polygon class="cls-6" points="65.7 87.6 54.75 87.6 54.75 98.54 65.7 98.54 76.64 98.54 76.64 87.6 65.7 87.6"/><polygon class="cls-1" points="76.64 65.7 65.7 65.7 54.75 65.7 43.8 65.7 43.8 76.65 43.8 87.6 54.75 87.6 54.75 76.65 65.7 76.65 76.64 76.65 76.64 87.6 87.59 87.6 87.59 76.65 87.59 65.7 76.64 65.7"/><polygon class="cls-7" points="76.64 87.6 76.64 98.54 65.7 98.54 54.75 98.54 54.75 87.6 43.8 87.6 43.8 98.54 43.8 109.49 54.75 109.49 65.7 109.49 76.64 109.49 87.59 109.49 87.59 98.54 87.59 87.6 76.64 87.6"/><rect class="cls-9" x="175.19" y="262.78" width="10.95" height="10.95"/><polygon class="cls-10" points="208.04 262.78 197.09 262.78 186.14 262.78 186.14 273.73 175.19 273.73 175.19 284.68 186.14 284.68 197.09 284.68 208.04 284.68 218.98 284.68 218.98 273.73 218.98 262.78 208.04 262.78"/><polygon class="cls-11" points="208.04 284.68 197.09 284.68 186.14 284.68 175.19 284.68 175.19 295.63 175.19 306.58 186.14 306.58 197.09 306.58 208.04 306.58 218.98 306.58 218.98 295.63 218.98 284.68 208.04 284.68"/><rect class="cls-9" x="238.48" y="262.78" width="10.95" height="10.95"/><polygon class="cls-10" points="271.32 262.78 260.37 262.78 249.43 262.78 249.43 273.73 238.48 273.73 238.48 284.68 249.43 284.68 260.37 284.68 271.32 284.68 282.27 284.68 282.27 273.73 282.27 262.78 271.32 262.78"/><polygon class="cls-11" points="271.32 284.68 260.37 284.68 249.43 284.68 238.48 284.68 238.48 295.63 238.48 306.58 249.43 306.58 260.37 306.58 271.32 306.58 282.27 306.58 282.27 295.63 282.27 284.68 271.32 284.68"/><rect class="cls-9" x="301.76" y="262.78" width="10.95" height="10.95"/><polygon class="cls-10" points="334.61 262.78 323.66 262.78 312.71 262.78 312.71 273.73 301.76 273.73 301.76 284.68 312.71 284.68 323.66 284.68 334.61 284.68 345.56 284.68 345.56 273.73 345.56 262.78 334.61 262.78"/><polygon class="cls-11" points="334.61 284.68 323.66 284.68 312.71 284.68 301.76 284.68 301.76 295.63 301.76 306.58 312.71 306.58 323.66 306.58 334.61 306.58 345.56 306.58 345.56 295.63 345.56 284.68 334.61 284.68"/><rect class="cls-9" x="365.05" y="262.78" width="10.95" height="10.95"/><polygon class="cls-10" points="397.9 262.78 386.95 262.78 376 262.78 376 273.73 365.05 273.73 365.05 284.68 376 284.68 386.95 284.68 397.9 284.68 408.85 284.68 408.85 273.73 408.85 262.78 397.9 262.78"/><polygon class="cls-11" points="397.9 284.68 386.95 284.68 376 284.68 365.05 284.68 365.05 295.63 365.05 306.58 376 306.58 386.95 306.58 397.9 306.58 408.85 306.58 408.85 295.63 408.85 284.68 397.9 284.68"/><rect class="cls-9" x="428.34" y="262.78" width="10.95" height="10.95"/><polygon class="cls-10" points="461.19 262.78 450.24 262.78 439.29 262.78 439.29 273.73 428.34 273.73 428.34 284.68 439.29 284.68 450.24 284.68 461.19 284.68 472.14 284.68 472.14 273.73 472.14 262.78 461.19 262.78"/><polygon class="cls-11" points="461.19 284.68 450.24 284.68 439.29 284.68 428.34 284.68 428.34 295.63 428.34 306.58 439.29 306.58 450.24 306.58 461.19 306.58 472.14 306.58 472.14 295.63 472.14 284.68 461.19 284.68"/><rect class="cls-9" x="491.63" y="262.78" width="10.95" height="10.95"/><polygon class="cls-10" points="524.48 262.78 513.53 262.78 502.58 262.78 502.58 273.73 491.63 273.73 491.63 284.68 502.58 284.68 513.53 284.68 524.48 284.68 535.43 284.68 535.43 273.73 535.43 262.78 524.48 262.78"/><polygon class="cls-11" points="524.48 284.68 513.53 284.68 502.58 284.68 491.63 284.68 491.63 295.63 491.63 306.58 502.58 306.58 513.53 306.58 524.48 306.58 535.43 306.58 535.43 295.63 535.43 284.68 524.48 284.68"/><rect class="cls-9" x="591.46" y="328.48" width="10.95" height="10.95"/><polygon class="cls-10" points="624.31 328.48 613.36 328.48 602.41 328.48 602.41 339.43 591.46 339.43 591.46 350.38 602.41 350.38 613.36 350.38 624.31 350.38 635.26 350.38 635.26 339.43 635.26 328.48 624.31 328.48"/><polygon class="cls-11" points="624.31 350.38 613.36 350.38 602.41 350.38 591.46 350.38 591.46 361.33 591.46 372.28 602.41 372.28 613.36 372.28 624.31 372.28 635.26 372.28 635.26 361.33 635.26 350.38 624.31 350.38"/><rect class="cls-9" x="554.92" y="262.78" width="10.95" height="10.95"/><polygon class="cls-10" points="587.76 262.78 576.82 262.78 565.87 262.78 565.87 273.73 554.92 273.73 554.92 284.68 565.87 284.68 576.82 284.68 587.76 284.68 598.71 284.68 598.71 273.73 598.71 262.78 587.76 262.78"/><polygon class="cls-11" points="587.76 284.68 576.82 284.68 565.87 284.68 554.92 284.68 554.92 295.63 554.92 306.58 565.87 306.58 576.82 306.58 587.76 306.58 598.71 306.58 598.71 295.63 598.71 284.68 587.76 284.68"/><rect class="cls-9" x="262.82" y="328.48" width="10.95" height="10.95"/><polygon class="cls-10" points="295.66 328.48 284.71 328.48 273.76 328.48 273.76 339.43 262.82 339.43 262.82 350.38 273.76 350.38 284.71 350.38 295.66 350.38 306.61 350.38 306.61 339.43 306.61 328.48 295.66 328.48"/><polygon class="cls-11" points="295.66 350.38 284.71 350.38 273.76 350.38 262.82 350.38 262.82 361.33 262.82 372.28 273.76 372.28 284.71 372.28 295.66 372.28 306.61 372.28 306.61 361.33 306.61 350.38 295.66 350.38"/><rect class="cls-9" x="328.54" y="328.48" width="10.95" height="10.95"/><polygon class="cls-10" points="361.39 328.48 350.44 328.48 339.49 328.48 339.49 339.43 328.55 339.43 328.55 350.38 339.49 350.38 350.44 350.38 361.39 350.38 372.34 350.38 372.34 339.43 372.34 328.48 361.39 328.48"/><polygon class="cls-11" points="361.39 350.38 350.44 350.38 339.49 350.38 328.55 350.38 328.55 361.33 328.55 372.28 339.49 372.28 350.44 372.28 361.39 372.28 372.34 372.28 372.34 361.33 372.34 350.38 361.39 350.38"/><rect class="cls-9" x="394.27" y="328.48" width="10.95" height="10.95"/><polygon class="cls-10" points="427.12 328.48 416.17 328.48 405.22 328.48 405.22 339.43 394.27 339.43 394.27 350.38 405.22 350.38 416.17 350.38 427.12 350.38 438.07 350.38 438.07 339.43 438.07 328.48 427.12 328.48"/><polygon class="cls-11" points="427.12 350.38 416.17 350.38 405.22 350.38 394.27 350.38 394.27 361.33 394.27 372.28 405.22 372.28 416.17 372.28 427.12 372.28 438.07 372.28 438.07 361.33 438.07 350.38 427.12 350.38"/><rect class="cls-9" x="460" y="328.48" width="10.95" height="10.95"/><polygon class="cls-10" points="492.85 328.48 481.9 328.48 470.95 328.48 470.95 339.43 460 339.43 460 350.38 470.95 350.38 481.9 350.38 492.85 350.38 503.8 350.38 503.8 339.43 503.8 328.48 492.85 328.48"/><polygon class="cls-11" points="492.85 350.38 481.9 350.38 470.95 350.38 460 350.38 460 361.33 460 372.28 470.95 372.28 481.9 372.28 492.85 372.28 503.8 372.28 503.8 361.33 503.8 350.38 492.85 350.38"/><rect class="cls-9" x="525.73" y="328.48" width="10.95" height="10.95"/><polygon class="cls-10" points="558.58 328.48 547.63 328.48 536.68 328.48 536.68 339.43 525.73 339.43 525.73 350.38 536.68 350.38 547.63 350.38 558.58 350.38 569.53 350.38 569.53 339.43 569.53 328.48 558.58 328.48"/><polygon class="cls-11" points="558.58 350.38 547.63 350.38 536.68 350.38 525.73 350.38 525.73 361.33 525.73 372.28 536.68 372.28 547.63 372.28 558.58 372.28 569.53 372.28 569.53 361.33 569.53 350.38 558.58 350.38"/><rect class="cls-9" x="197.09" y="328.48" width="10.95" height="10.95"/><polygon class="cls-10" points="229.93 328.48 218.98 328.48 208.04 328.48 208.04 339.43 197.09 339.43 197.09 350.38 208.04 350.38 218.98 350.38 229.93 350.38 240.88 350.38 240.88 339.43 240.88 328.48 229.93 328.48"/><polygon class="cls-11" points="229.93 350.38 218.98 350.38 208.04 350.38 197.09 350.38 197.09 361.33 197.09 372.28 208.04 372.28 218.98 372.28 229.93 372.28 240.88 372.28 240.88 361.33 240.88 350.38 229.93 350.38"/><rect class="cls-9" x="618.2" y="262.78" width="10.95" height="10.95"/><polygon class="cls-10" points="651.05 262.78 640.1 262.78 629.15 262.78 629.15 273.73 618.2 273.73 618.2 284.68 629.15 284.68 640.1 284.68 651.05 284.68 662 284.68 662 273.73 662 262.78 651.05 262.78"/><polygon class="cls-11" points="651.05 284.68 640.1 284.68 629.15 284.68 618.2 284.68 618.2 295.63 618.2 306.58 629.15 306.58 640.1 306.58 651.05 306.58 662 306.58 662 295.63 662 284.68 651.05 284.68"/><rect class="cls-9" x="131.39" y="197.09" width="10.95" height="10.95"/><polygon class="cls-10" points="164.24 197.09 153.29 197.09 142.34 197.09 142.34 208.04 131.39 208.04 131.39 218.99 142.34 218.99 153.29 218.99 164.24 218.99 175.19 218.99 175.19 208.04 175.19 197.09 164.24 197.09"/><polygon class="cls-11" points="164.24 218.99 153.29 218.99 142.34 218.99 131.39 218.99 131.39 229.94 131.39 240.88 142.34 240.88 153.29 240.88 164.24 240.88 175.19 240.88 175.19 229.94 175.19 218.99 164.24 218.99"/><rect class="cls-9" x="681.49" y="262.78" width="10.95" height="10.95"/><polygon class="cls-10" points="714.34 262.78 703.39 262.78 692.44 262.78 692.44 273.73 681.49 273.73 681.49 284.68 692.44 284.68 703.39 284.68 714.34 284.68 725.29 284.68 725.29 273.73 725.29 262.78 714.34 262.78"/><polygon class="cls-11" points="714.34 284.68 703.39 284.68 692.44 284.68 681.49 284.68 681.49 295.63 681.49 306.58 692.44 306.58 703.39 306.58 714.34 306.58 725.29 306.58 725.29 295.63 725.29 284.68 714.34 284.68"/><rect class="cls-9" x="199.06" y="197.09" width="10.95" height="10.95"/><polygon class="cls-10" points="231.91 197.09 220.96 197.09 210.01 197.09 210.01 208.04 199.06 208.04 199.06 218.99 210.01 218.99 220.96 218.99 231.91 218.99 242.86 218.99 242.86 208.04 242.86 197.09 231.91 197.09"/><polygon class="cls-11" points="231.91 218.99 220.96 218.99 210.01 218.99 199.06 218.99 199.06 229.94 199.06 240.88 210.01 240.88 220.96 240.88 231.91 240.88 242.86 240.88 242.86 229.94 242.86 218.99 231.91 218.99"/><rect class="cls-9" x="266.73" y="197.09" width="10.95" height="10.95"/><polygon class="cls-10" points="299.57 197.09 288.63 197.09 277.68 197.09 277.68 208.04 266.73 208.04 266.73 218.99 277.68 218.99 288.63 218.99 299.57 218.99 310.52 218.99 310.52 208.04 310.52 197.09 299.57 197.09"/><polygon class="cls-11" points="299.57 218.99 288.63 218.99 277.68 218.99 266.73 218.99 266.73 229.94 266.73 240.88 277.68 240.88 288.63 240.88 299.57 240.88 310.52 240.88 310.52 229.94 310.52 218.99 299.57 218.99"/><rect class="cls-9" x="334.39" y="197.09" width="10.95" height="10.95"/><polygon class="cls-10" points="367.24 197.09 356.29 197.09 345.34 197.09 345.34 208.04 334.39 208.04 334.39 218.99 345.34 218.99 356.29 218.99 367.24 218.99 378.19 218.99 378.19 208.04 378.19 197.09 367.24 197.09"/><polygon class="cls-11" points="367.24 218.99 356.29 218.99 345.34 218.99 334.39 218.99 334.39 229.94 334.39 240.88 345.34 240.88 356.29 240.88 367.24 240.88 378.19 240.88 378.19 229.94 378.19 218.99 367.24 218.99"/><rect class="cls-9" x="402.06" y="197.09" width="10.95" height="10.95"/><polygon class="cls-10" points="434.91 197.09 423.96 197.09 413.01 197.09 413.01 208.04 402.06 208.04 402.06 218.99 413.01 218.99 423.96 218.99 434.91 218.99 445.86 218.99 445.86 208.04 445.86 197.09 434.91 197.09"/><polygon class="cls-11" points="434.91 218.99 423.96 218.99 413.01 218.99 402.06 218.99 402.06 229.94 402.06 240.88 413.01 240.88 423.96 240.88 434.91 240.88 445.86 240.88 445.86 229.94 445.86 218.99 434.91 218.99"/><rect class="cls-9" x="469.73" y="197.09" width="10.95" height="10.95"/><polygon class="cls-10" points="502.58 197.09 491.63 197.09 480.68 197.09 480.68 208.04 469.73 208.04 469.73 218.99 480.68 218.99 491.63 218.99 502.58 218.99 513.53 218.99 513.53 208.04 513.53 197.09 502.58 197.09"/><polygon class="cls-11" points="502.58 218.99 491.63 218.99 480.68 218.99 469.73 218.99 469.73 229.94 469.73 240.88 480.68 240.88 491.63 240.88 502.58 240.88 513.53 240.88 513.53 229.94 513.53 218.99 502.58 218.99"/><rect class="cls-9" x="537.4" y="197.09" width="10.95" height="10.95"/><polygon class="cls-10" points="570.25 197.09 559.3 197.09 548.35 197.09 548.35 208.04 537.4 208.04 537.4 218.99 548.35 218.99 559.3 218.99 570.25 218.99 581.19 218.99 581.19 208.04 581.19 197.09 570.25 197.09"/><polygon class="cls-11" points="570.25 218.99 559.3 218.99 548.35 218.99 537.4 218.99 537.4 229.94 537.4 240.88 548.35 240.88 559.3 240.88 570.25 240.88 581.19 240.88 581.19 229.94 581.19 218.99 570.25 218.99"/><rect class="cls-9" x="605.07" y="197.09" width="10.95" height="10.95"/><polygon class="cls-10" points="637.91 197.09 626.96 197.09 616.01 197.09 616.01 208.04 605.07 208.04 605.07 218.99 616.01 218.99 626.96 218.99 637.91 218.99 648.86 218.99 648.86 208.04 648.86 197.09 637.91 197.09"/><polygon class="cls-11" points="637.91 218.99 626.96 218.99 616.01 218.99 605.07 218.99 605.07 229.94 605.07 240.88 616.01 240.88 626.96 240.88 637.91 240.88 648.86 240.88 648.86 229.94 648.86 218.99 637.91 218.99"/><rect class="cls-9" x="672.73" y="197.09" width="10.95" height="10.95"/><polygon class="cls-10" points="705.58 197.09 694.63 197.09 683.68 197.09 683.68 208.04 672.73 208.04 672.73 218.99 683.68 218.99 694.63 218.99 705.58 218.99 716.53 218.99 716.53 208.04 716.53 197.09 705.58 197.09"/><polygon class="cls-11" points="705.58 218.99 694.63 218.99 683.68 218.99 672.73 218.99 672.73 229.94 672.73 240.88 683.68 240.88 694.63 240.88 705.58 240.88 716.53 240.88 716.53 229.94 716.53 218.99 705.58 218.99"/><rect class="cls-9" x="740.4" y="197.09" width="10.95" height="10.95"/><polygon class="cls-10" points="773.25 197.09 762.3 197.09 751.35 197.09 751.35 208.04 740.4 208.04 740.4 218.99 751.35 218.99 762.3 218.99 773.25 218.99 784.2 218.99 784.2 208.04 784.2 197.09 773.25 197.09"/><polygon class="cls-11" points="773.25 218.99 762.3 218.99 751.35 218.99 740.4 218.99 740.4 229.94 740.4 240.88 751.35 240.88 762.3 240.88 773.25 240.88 784.2 240.88 784.2 229.94 784.2 218.99 773.25 218.99"/><rect class="cls-9" x="941.43" y="197.09" width="10.95" height="10.95"/><rect class="cls-8" x="941.43" y="218.99" width="10.95" height="10.95"/><polygon class="cls-10" points="996.18 197.09 985.23 197.09 974.28 197.09 963.33 197.09 952.38 197.09 952.38 208.04 941.43 208.04 941.43 218.99 952.38 218.99 963.33 218.99 974.28 218.99 985.23 218.99 996.18 218.99 1007.13 218.99 1007.13 208.04 1007.13 197.09 996.18 197.09"/><polygon class="cls-11" points="996.18 218.99 985.23 218.99 974.28 218.99 963.33 218.99 952.38 218.99 952.38 229.94 941.43 229.94 941.43 240.88 952.38 240.88 963.33 240.88 974.28 240.88 985.23 240.88 996.18 240.88 1007.13 240.88 1007.13 229.94 1007.13 218.99 996.18 218.99"/><polygon class="cls-9" points="229.97 405.12 219.02 405.12 219.02 416.07 229.97 416.07 240.92 416.07 240.92 405.12 229.97 405.12"/><polygon class="cls-10" points="273.77 394.17 262.82 394.17 251.87 394.17 240.92 394.17 229.97 394.17 219.02 394.17 219.02 405.12 229.97 405.12 240.92 405.12 240.92 416.07 251.87 416.07 262.82 416.07 273.77 416.07 284.72 416.07 284.72 405.12 284.72 394.17 273.77 394.17"/><polygon class="cls-11" points="273.77 416.07 262.82 416.07 251.87 416.07 240.92 416.07 229.97 416.07 219.02 416.07 219.02 427.02 219.02 437.97 229.97 437.97 240.92 437.97 251.87 437.97 262.82 437.97 273.77 437.97 284.72 437.97 284.72 427.02 284.72 416.07 273.77 416.07"/><polygon class="cls-9" points="54.75 405.12 43.8 405.12 43.8 416.07 54.75 416.07 65.7 416.07 65.7 405.12 54.75 405.12"/><polygon class="cls-10" points="98.54 394.17 87.59 394.17 76.64 394.17 65.7 394.17 54.75 394.17 43.8 394.17 43.8 405.12 54.75 405.12 65.7 405.12 65.7 416.07 76.64 416.07 87.59 416.07 98.54 416.07 109.49 416.07 109.49 405.12 109.49 394.17 98.54 394.17"/><polygon class="cls-11" points="98.54 416.07 87.59 416.07 76.64 416.07 65.7 416.07 54.75 416.07 43.8 416.07 43.8 427.02 43.8 437.97 54.75 437.97 65.7 437.97 76.64 437.97 87.59 437.97 98.54 437.97 109.49 437.97 109.49 427.02 109.49 416.07 98.54 416.07"/><polygon class="cls-9" points="142.38 405.12 131.43 405.12 131.43 416.07 142.38 416.07 153.33 416.07 153.33 405.12 142.38 405.12"/><polygon class="cls-10" points="186.18 394.17 175.23 394.17 164.28 394.17 153.33 394.17 142.38 394.17 131.43 394.17 131.43 405.12 142.38 405.12 153.33 405.12 153.33 416.07 164.28 416.07 175.23 416.07 186.18 416.07 197.12 416.07 197.12 405.12 197.12 394.17 186.18 394.17"/><polygon class="cls-11" points="186.18 416.07 175.23 416.07 164.28 416.07 153.33 416.07 142.38 416.07 131.43 416.07 131.43 427.02 131.43 437.97 142.38 437.97 153.33 437.97 164.28 437.97 175.23 437.97 186.18 437.97 197.12 437.97 197.12 427.02 197.12 416.07 186.18 416.07"/><polygon class="cls-9" points="54.75 197.09 43.8 197.09 43.8 208.04 54.75 208.04 65.7 208.04 65.7 197.09 54.75 197.09"/><polygon class="cls-8" points="54.75 218.99 43.8 218.99 43.8 229.94 54.75 229.94 65.7 229.94 65.7 218.99 54.75 218.99"/><polygon class="cls-10" points="98.54 197.09 87.59 197.09 76.64 197.09 65.7 197.09 65.7 208.04 54.75 208.04 43.8 208.04 43.8 218.99 54.75 218.99 65.7 218.99 76.64 218.99 87.59 218.99 98.54 218.99 109.49 218.99 109.49 208.04 109.49 197.09 98.54 197.09"/><polygon class="cls-11" points="98.54 218.99 87.59 218.99 76.64 218.99 65.7 218.99 65.7 229.94 54.75 229.94 43.8 229.94 43.8 240.88 54.75 240.88 65.7 240.88 76.64 240.88 87.59 240.88 98.54 240.88 109.49 240.88 109.49 229.94 109.49 218.99 98.54 218.99"/><polygon class="cls-10" points="87.61 273.73 98.56 273.73 98.56 284.68 109.49 284.68 109.51 284.68 120.44 284.68 131.39 284.68 142.34 284.68 153.29 284.68 153.29 273.73 153.29 262.78 142.34 262.78 131.39 262.78 120.44 262.78 109.51 262.78 109.49 262.78 98.56 262.78 87.61 262.78 83.45 262.78 73.54 262.78 63.63 262.78 53.71 262.78 43.8 262.78 43.8 273.73 53.71 273.73 63.63 273.73 73.54 273.73 83.45 273.73 87.61 273.73"/><rect class="cls-9" x="87.61" y="273.73" width="10.95" height="10.95"/><polygon class="cls-9" points="65.7 273.73 54.75 273.73 43.8 273.73 43.8 284.68 54.75 284.68 65.7 284.68 76.64 284.68 87.59 284.68 87.59 273.73 76.64 273.73 65.7 273.73"/><polygon class="cls-11" points="87.61 284.68 98.56 284.68 109.49 284.68 109.51 284.68 120.44 284.68 131.39 284.68 142.34 284.68 153.29 284.68 153.29 295.63 153.29 306.58 142.34 306.58 131.39 306.58 120.44 306.58 109.51 306.58 109.49 306.58 98.56 306.58 87.61 306.58 82.15 306.58 72.56 306.58 62.97 306.58 53.39 306.58 43.8 306.58 43.8 295.63 43.8 284.68 53.39 284.68 62.97 284.68 72.56 284.68 82.15 284.68 87.61 284.68"/><polygon class="cls-9" points="963.28 394.17 963.28 405.12 963.28 416.07 974.23 416.07 974.23 405.12 974.23 394.17 963.28 394.17"/><polygon class="cls-10" points="974.23 394.17 974.23 405.12 974.23 416.07 985.18 416.07 985.18 405.12 985.18 394.17 974.23 394.17"/><polygon class="cls-9" points="996.13 394.17 985.18 394.17 985.18 405.12 985.18 416.07 996.13 416.07 1007.08 416.07 1007.08 405.12 1007.08 394.17 996.13 394.17"/><polygon class="cls-8" points="996.13 416.07 985.18 416.07 974.23 416.07 963.28 416.07 963.28 427.02 963.28 437.97 974.23 437.97 985.18 437.97 996.13 437.97 1007.08 437.97 1007.08 427.02 1007.08 416.07 996.13 416.07"/><polygon class="cls-9" points="963.28 328.48 963.28 339.43 963.28 350.38 974.23 350.38 974.23 339.43 974.23 328.48 963.28 328.48"/><polygon class="cls-10" points="974.23 328.48 974.23 339.43 974.23 350.38 985.18 350.38 985.18 339.43 985.18 328.48 974.23 328.48"/><polygon class="cls-9" points="996.13 328.48 985.18 328.48 985.18 339.43 985.18 350.38 996.13 350.38 1007.08 350.38 1007.08 339.43 1007.08 328.48 996.13 328.48"/><polygon class="cls-8" points="996.13 350.38 985.18 350.38 974.23 350.38 963.28 350.38 963.28 361.33 963.28 372.28 974.23 372.28 985.18 372.28 996.13 372.28 1007.08 372.28 1007.08 361.33 1007.08 350.38 996.13 350.38"/><polygon class="cls-9" points="886.89 339.43 875.94 339.43 864.99 339.43 854.04 339.43 854.04 350.38 864.99 350.38 875.94 350.38 886.89 350.38 897.84 350.38 897.84 339.43 886.89 339.43"/><polygon class="cls-10" points="930.68 328.48 919.74 328.48 908.79 328.48 897.84 328.48 886.89 328.48 875.94 328.48 864.99 328.48 854.04 328.48 854.04 339.43 864.99 339.43 875.94 339.43 886.89 339.43 897.84 339.43 897.84 350.38 908.79 350.38 919.74 350.38 930.68 350.38 941.63 350.38 941.63 339.43 941.63 328.48 930.68 328.48"/><polygon class="cls-11" points="930.68 350.38 919.74 350.38 908.79 350.38 897.84 350.38 886.89 350.38 875.94 350.38 864.99 350.38 854.04 350.38 854.04 361.33 854.04 372.28 864.99 372.28 875.94 372.28 886.89 372.28 897.84 372.28 908.79 372.28 919.74 372.28 930.68 372.28 941.63 372.28 941.63 361.33 941.63 350.38 930.68 350.38"/><polygon class="cls-10" points="84.49 339.43 74.32 339.43 64.15 339.43 53.97 339.43 43.8 339.43 43.8 328.48 53.97 328.48 64.15 328.48 74.32 328.48 84.49 328.48 103.98 328.48 114.14 328.48 114.15 328.48 124.32 328.48 134.49 328.48 144.66 328.48 154.84 328.48 165.01 328.48 175.19 328.48 175.19 339.43 175.19 350.38 165.01 350.38 154.84 350.38 144.66 350.38 134.49 350.38 124.32 350.38 114.15 350.38 114.14 350.38 103.98 350.38 93.81 350.38 84.51 350.38 84.49 339.43"/><polygon class="cls-9" points="76.64 339.43 65.7 339.43 54.75 339.43 43.8 339.43 43.8 350.38 54.75 350.38 65.7 350.38 76.64 350.38 87.59 350.38 87.59 339.43 76.64 339.43"/><polygon class="cls-11" points="77.59 350.38 66.64 350.38 55.69 350.38 44.74 350.38 43.8 350.38 43.8 372.28 44.74 372.28 55.69 372.28 66.64 372.28 77.59 372.28 87.61 372.28 98.56 372.28 109.49 372.28 109.51 372.28 120.44 372.28 131.39 372.28 142.34 372.28 153.29 372.28 164.24 372.28 175.19 372.28 175.19 361.33 175.19 350.38 164.24 350.38 153.29 350.38 142.34 350.38 131.39 350.38 120.44 350.38 109.51 350.38 109.49 350.38 98.56 350.38 87.61 350.38 77.59 350.38"/><polygon class="cls-10" points="667.97 394.17 657.02 394.17 646.07 394.17 635.12 394.17 624.17 394.17 613.22 394.17 602.27 394.17 591.32 394.17 580.37 394.17 569.42 394.17 558.47 394.17 547.52 394.17 536.58 394.17 525.63 394.17 514.68 394.17 503.73 394.17 492.78 394.17 481.83 394.17 470.88 394.17 459.93 394.17 448.98 394.17 438.03 394.17 427.08 394.17 416.13 394.17 405.18 394.17 394.24 394.17 383.29 394.17 372.34 394.17 361.39 394.17 350.44 394.17 339.49 394.17 328.54 394.17 317.59 394.17 306.64 394.17 306.64 405.12 306.64 416.07 317.59 416.07 328.54 416.07 339.49 416.07 350.44 416.07 361.39 416.07 372.34 416.07 383.29 416.07 394.24 416.07 405.18 416.07 416.13 416.07 427.08 416.07 438.03 416.07 448.98 416.07 459.93 416.07 470.88 416.07 481.83 416.07 492.78 416.07 503.73 416.07 514.68 416.07 525.63 416.07 536.58 416.07 547.52 416.07 558.47 416.07 569.42 416.07 580.37 416.07 591.32 416.07 602.27 416.07 613.22 416.07 624.17 416.07 635.12 416.07 646.07 416.07 657.02 416.07 667.97 416.07 678.92 416.07 678.92 405.12 678.92 394.17 667.97 394.17"/><polygon class="cls-11" points="667.97 416.07 657.02 416.07 646.07 416.07 635.12 416.07 624.17 416.07 613.22 416.07 602.27 416.07 591.32 416.07 580.37 416.07 569.42 416.07 558.47 416.07 547.52 416.07 536.58 416.07 525.63 416.07 514.68 416.07 503.73 416.07 492.78 416.07 481.83 416.07 470.88 416.07 459.93 416.07 448.98 416.07 438.03 416.07 427.08 416.07 416.13 416.07 405.18 416.07 394.24 416.07 383.29 416.07 372.34 416.07 361.39 416.07 350.44 416.07 339.49 416.07 328.54 416.07 317.59 416.07 306.64 416.07 306.64 427.02 306.64 437.97 317.59 437.97 328.54 437.97 339.49 437.97 350.44 437.97 361.39 437.97 372.34 437.97 383.29 437.97 394.24 437.97 405.18 437.97 416.13 437.97 427.08 437.97 438.03 437.97 448.98 437.97 459.93 437.97 470.88 437.97 481.83 437.97 492.78 437.97 503.73 437.97 514.68 437.97 525.63 437.97 536.58 437.97 547.52 437.97 558.47 437.97 569.42 437.97 580.37 437.97 591.32 437.97 602.27 437.97 613.22 437.97 624.17 437.97 635.12 437.97 646.07 437.97 657.02 437.97 667.97 437.97 678.92 437.97 678.92 427.02 678.92 416.07 667.97 416.07"/><rect class="cls-4" x="329.14" y="492.72" width="10.95" height="10.95" transform="translate(-163.58 832.8) rotate(-90)"/><rect class="cls-4" x="329.14" y="481.77" width="10.95" height="10.95" transform="translate(-152.63 821.85) rotate(-90)"/><rect class="cls-4" x="575.54" y="10.95" width="10.95" height="10.95" transform="translate(564.58 597.43) rotate(-90)"/><rect class="cls-4" x="575.54" y="0" width="10.95" height="10.95" transform="translate(575.53 586.49) rotate(-90)"/><rect class="cls-5" y="481.77" width="1116.47" height="21.9"/><rect class="cls-1" width="1116.47" height="21.9"/></g></svg>