<?xml version="1.0" encoding="UTF-8"?><svg id="Layer_2" xmlns="http://www.w3.org/2000/svg" viewBox="0 0 1457.18 464.56"><defs><style>.cls-1{fill:#e3e4d0;}.cls-2{fill:#ffffeb;}.cls-3{fill:#333;}.cls-4{fill:#b1b2b1;}.cls-5{fill:#bec1bd;}.cls-6{fill:#c9ccc8;}.cls-7{fill:#d3d8d2;}.cls-8{fill:#212730;}.cls-9{fill:#37393a;}.cls-10{fill:#3f3f3f;}.cls-11{fill:#85c4c9;}.cls-12{fill:#313233;}.cls-13{fill:#838182;}.cls-14{fill:#757475;}.cls-15{fill:#77b1b2;}.cls-16{fill:#4d4d4d;}</style></defs><g id="Layer_1-2"><polygon class="cls-16" points="1164.43 40.41 1144.24 40.41 20.21 40.41 20.21 444.35 1091.49 444.35 1164.43 444.35 1436.99 444.35 1436.99 131.4 1436.99 121.17 1436.99 40.41 1164.43 40.41"/><rect class="cls-7" x="40.41" y="141.36" width="10.1" height="10.1"/><rect class="cls-6" x="40.41" y="161.56" width="10.1" height="10.1"/><polygon class="cls-9" points="70.7 141.36 60.6 141.36 50.5 141.36 50.5 151.46 40.41 151.46 40.41 161.56 50.5 161.56 60.6 161.56 70.7 161.56 80.8 161.56 80.8 151.46 80.8 141.36 70.7 141.36"/><polygon class="cls-12" points="70.7 161.56 60.6 161.56 50.5 161.56 50.5 171.66 40.41 171.66 40.41 181.75 50.5 181.75 60.6 181.75 70.7 181.75 80.8 181.75 80.8 171.66 80.8 161.56 70.7 161.56"/><rect class="cls-7" x="106.5" y="141.36" width="10.1" height="10.1"/><rect class="cls-6" x="106.5" y="161.56" width="10.1" height="10.1"/><polygon class="cls-9" points="136.79 141.36 126.69 141.36 116.6 141.36 116.6 151.46 106.5 151.46 106.5 161.56 116.6 161.56 126.69 161.56 136.79 161.56 146.89 161.56 146.89 151.46 146.89 141.36 136.79 141.36"/><polygon class="cls-12" points="136.79 161.56 126.69 161.56 116.6 161.56 116.6 171.66 106.5 171.66 106.5 181.75 116.6 181.75 126.69 181.75 136.79 181.75 146.89 181.75 146.89 171.66 146.89 161.56 136.79 161.56"/><rect class="cls-7" x="172.59" y="141.36" width="10.1" height="10.1"/><rect class="cls-6" x="172.59" y="161.56" width="10.1" height="10.1"/><polygon class="cls-9" points="202.88 141.36 192.78 141.36 182.69 141.36 182.69 151.46 172.59 151.46 172.59 161.56 182.69 161.56 192.78 161.56 202.88 161.56 212.98 161.56 212.98 151.46 212.98 141.36 202.88 141.36"/><polygon class="cls-12" points="202.88 161.56 192.78 161.56 182.69 161.56 182.69 171.66 172.59 171.66 172.59 181.75 182.69 181.75 192.78 181.75 202.88 181.75 212.98 181.75 212.98 171.66 212.98 161.56 202.88 161.56"/><rect class="cls-7" x="238.68" y="141.36" width="10.1" height="10.1"/><rect class="cls-6" x="238.68" y="161.56" width="10.1" height="10.1"/><polygon class="cls-9" points="268.97 141.36 258.87 141.36 248.78 141.36 248.78 151.46 238.68 151.46 238.68 161.56 248.78 161.56 258.87 161.56 268.97 161.56 279.07 161.56 279.07 151.46 279.07 141.36 268.97 141.36"/><polygon class="cls-12" points="268.97 161.56 258.87 161.56 248.78 161.56 248.78 171.66 238.68 171.66 238.68 181.75 248.78 181.75 258.87 181.75 268.97 181.75 279.07 181.75 279.07 171.66 279.07 161.56 268.97 161.56"/><rect class="cls-7" x="304.77" y="141.36" width="10.1" height="10.1"/><rect class="cls-6" x="304.77" y="161.56" width="10.1" height="10.1"/><polygon class="cls-9" points="335.06 141.36 324.96 141.36 314.87 141.36 314.87 151.46 304.77 151.46 304.77 161.56 314.87 161.56 324.96 161.56 335.06 161.56 345.16 161.56 345.16 151.46 345.16 141.36 335.06 141.36"/><polygon class="cls-12" points="335.06 161.56 324.96 161.56 314.87 161.56 314.87 171.66 304.77 171.66 304.77 181.75 314.87 181.75 324.96 181.75 335.06 181.75 345.16 181.75 345.16 171.66 345.16 161.56 335.06 161.56"/><rect class="cls-7" x="370.86" y="141.36" width="10.1" height="10.1"/><rect class="cls-6" x="370.86" y="161.56" width="10.1" height="10.1"/><polygon class="cls-9" points="401.15 141.36 391.05 141.36 380.96 141.36 380.96 151.46 370.86 151.46 370.86 161.56 380.96 161.56 391.05 161.56 401.15 161.56 411.25 161.56 411.25 151.46 411.25 141.36 401.15 141.36"/><polygon class="cls-12" points="401.15 161.56 391.05 161.56 380.96 161.56 380.96 171.66 370.86 171.66 370.86 181.75 380.96 181.75 391.05 181.75 401.15 181.75 411.25 181.75 411.25 171.66 411.25 161.56 401.15 161.56"/><rect class="cls-7" x="436.95" y="141.36" width="10.1" height="10.1"/><rect class="cls-6" x="436.95" y="161.56" width="10.1" height="10.1"/><polygon class="cls-9" points="467.24 141.36 457.15 141.36 447.05 141.36 447.05 151.46 436.95 151.46 436.95 161.56 447.05 161.56 457.15 161.56 467.24 161.56 477.34 161.56 477.34 151.46 477.34 141.36 467.24 141.36"/><polygon class="cls-12" points="467.24 161.56 457.15 161.56 447.05 161.56 447.05 171.66 436.95 171.66 436.95 181.75 447.05 181.75 457.15 181.75 467.24 181.75 477.34 181.75 477.34 171.66 477.34 161.56 467.24 161.56"/><rect class="cls-7" x="503.04" y="141.36" width="10.1" height="10.1"/><rect class="cls-6" x="503.04" y="161.56" width="10.1" height="10.1"/><polygon class="cls-9" points="533.33 141.36 523.24 141.36 513.14 141.36 513.14 151.46 503.04 151.46 503.04 161.56 513.14 161.56 523.24 161.56 533.33 161.56 543.43 161.56 543.43 151.46 543.43 141.36 533.33 141.36"/><polygon class="cls-12" points="533.33 161.56 523.24 161.56 513.14 161.56 513.14 171.66 503.04 171.66 503.04 181.75 513.14 181.75 523.24 181.75 533.33 181.75 543.43 181.75 543.43 171.66 543.43 161.56 533.33 161.56"/><rect class="cls-7" x="569.13" y="141.36" width="10.1" height="10.1"/><rect class="cls-6" x="569.13" y="161.56" width="10.1" height="10.1"/><polygon class="cls-9" points="599.42 141.36 589.33 141.36 579.23 141.36 579.23 151.46 569.13 151.46 569.13 161.56 579.23 161.56 589.33 161.56 599.42 161.56 609.52 161.56 609.52 151.46 609.52 141.36 599.42 141.36"/><polygon class="cls-12" points="599.42 161.56 589.33 161.56 579.23 161.56 579.23 171.66 569.13 171.66 569.13 181.75 579.23 181.75 589.33 181.75 599.42 181.75 609.52 181.75 609.52 171.66 609.52 161.56 599.42 161.56"/><rect class="cls-7" x="635.22" y="141.36" width="10.1" height="10.1"/><rect class="cls-6" x="635.22" y="161.56" width="10.1" height="10.1"/><polygon class="cls-9" points="665.51 141.36 655.42 141.36 645.32 141.36 645.32 151.46 635.22 151.46 635.22 161.56 645.32 161.56 655.42 161.56 665.51 161.56 675.61 161.56 675.61 151.46 675.61 141.36 665.51 141.36"/><polygon class="cls-12" points="665.51 161.56 655.42 161.56 645.32 161.56 645.32 171.66 635.22 171.66 635.22 181.75 645.32 181.75 655.42 181.75 665.51 181.75 675.61 181.75 675.61 171.66 675.61 161.56 665.51 161.56"/><rect class="cls-7" x="701.31" y="141.36" width="10.1" height="10.1"/><rect class="cls-6" x="701.31" y="161.56" width="10.1" height="10.1"/><polygon class="cls-9" points="731.61 141.36 721.51 141.36 711.41 141.36 711.41 151.46 701.31 151.46 701.31 161.56 711.41 161.56 721.51 161.56 731.61 161.56 741.7 161.56 741.7 151.46 741.7 141.36 731.61 141.36"/><polygon class="cls-12" points="731.61 161.56 721.51 161.56 711.41 161.56 711.41 171.66 701.31 171.66 701.31 181.75 711.41 181.75 721.51 181.75 731.61 181.75 741.7 181.75 741.7 171.66 741.7 161.56 731.61 161.56"/><rect class="cls-7" x="767.4" y="141.36" width="10.1" height="10.1"/><rect class="cls-6" x="767.4" y="161.56" width="10.1" height="10.1"/><polygon class="cls-9" points="797.7 141.36 787.6 141.36 777.5 141.36 777.5 151.46 767.4 151.46 767.4 161.56 777.5 161.56 787.6 161.56 797.7 161.56 807.79 161.56 807.79 151.46 807.79 141.36 797.7 141.36"/><polygon class="cls-12" points="797.7 161.56 787.6 161.56 777.5 161.56 777.5 171.66 767.4 171.66 767.4 181.75 777.5 181.75 787.6 181.75 797.7 181.75 807.79 181.75 807.79 171.66 807.79 161.56 797.7 161.56"/><polygon class="cls-9" points="918.59 141.36 908.58 141.36 908.5 141.36 898.48 141.36 888.4 141.36 888.38 141.36 878.3 141.36 827.8 141.36 827.8 151.46 827.8 161.56 898.48 161.56 908.5 161.56 908.58 161.56 918.59 161.56 928.69 161.56 928.69 151.46 928.69 141.36 918.59 141.36"/><polygon class="cls-7" points="868.2 151.46 848 151.46 848 161.56 868.2 161.56 888.4 161.56 888.4 151.46 868.2 151.46"/><polygon class="cls-12" points="918.59 161.56 908.58 161.56 908.5 161.56 898.48 161.56 888.4 161.56 888.38 161.56 878.3 161.56 827.8 161.56 827.8 171.66 827.8 181.75 878.3 181.75 888.38 181.75 888.4 181.75 898.48 181.75 908.5 181.75 908.58 181.75 918.59 181.75 928.69 181.75 928.69 171.66 928.69 161.56 918.59 161.56"/><rect class="cls-7" x="434.06" y="70.7" width="10.1" height="10.1"/><polygon class="cls-9" points="464.36 60.6 454.26 60.6 444.16 60.6 434.06 60.6 434.06 70.7 444.16 70.7 444.16 80.8 454.26 80.8 464.36 80.8 474.45 80.8 474.45 70.7 474.45 60.6 464.36 60.6"/><polygon class="cls-12" points="464.36 80.8 454.26 80.8 444.16 80.8 434.06 80.8 434.06 90.89 434.06 100.99 444.16 100.99 454.26 100.99 464.36 100.99 474.45 100.99 474.45 90.89 474.45 80.8 464.36 80.8"/><rect class="cls-7" x="343.2" y="70.7" width="10.1" height="10.1"/><polygon class="cls-9" points="373.49 60.6 363.39 60.6 353.3 60.6 343.2 60.6 343.2 70.7 353.3 70.7 353.3 80.8 363.39 80.8 373.49 80.8 383.59 80.8 383.59 70.7 383.59 60.6 373.49 60.6"/><polygon class="cls-12" points="373.49 80.8 363.39 80.8 353.3 80.8 343.2 80.8 343.2 90.89 343.2 100.99 353.3 100.99 363.39 100.99 373.49 100.99 383.59 100.99 383.59 90.89 383.59 80.8 373.49 80.8"/><rect class="cls-7" x="555.17" y="70.7" width="10.1" height="10.1"/><polygon class="cls-9" points="585.46 60.6 575.36 60.6 565.27 60.6 555.17 60.6 555.17 70.7 565.27 70.7 565.27 80.8 575.36 80.8 585.46 80.8 595.56 80.8 595.56 70.7 595.56 60.6 585.46 60.6"/><polygon class="cls-12" points="585.46 80.8 575.36 80.8 565.27 80.8 555.17 80.8 555.17 90.89 555.17 100.99 565.27 100.99 575.36 100.99 585.46 100.99 595.56 100.99 595.56 90.89 595.56 80.8 585.46 80.8"/><rect class="cls-7" x="494.62" y="70.7" width="10.1" height="10.1"/><polygon class="cls-9" points="524.91 60.6 514.81 60.6 504.71 60.6 494.62 60.6 494.62 70.7 504.71 70.7 504.71 80.8 514.81 80.8 524.91 80.8 535.01 80.8 535.01 70.7 535.01 60.6 524.91 60.6"/><polygon class="cls-12" points="524.91 80.8 514.81 80.8 504.71 80.8 494.62 80.8 494.62 90.89 494.62 100.99 504.71 100.99 514.81 100.99 524.91 100.99 535.01 100.99 535.01 90.89 535.01 80.8 524.91 80.8"/><rect class="cls-7" x="706.46" y="70.7" width="10.1" height="10.1"/><polygon class="cls-9" points="736.75 60.6 726.65 60.6 716.56 60.6 706.46 60.6 706.46 70.7 716.56 70.7 716.56 80.8 726.65 80.8 736.75 80.8 746.85 80.8 746.85 70.7 746.85 60.6 736.75 60.6"/><polygon class="cls-12" points="736.75 80.8 726.65 80.8 716.56 80.8 706.46 80.8 706.46 90.89 706.46 100.99 716.56 100.99 726.65 100.99 736.75 100.99 746.85 100.99 746.85 90.89 746.85 80.8 736.75 80.8"/><rect class="cls-7" x="615.72" y="70.7" width="10.1" height="10.1"/><polygon class="cls-9" points="646.01 60.6 635.92 60.6 625.82 60.6 615.72 60.6 615.72 70.7 625.82 70.7 625.82 80.8 635.92 80.8 646.01 80.8 656.11 80.8 656.11 70.7 656.11 60.6 646.01 60.6"/><polygon class="cls-12" points="646.01 80.8 635.92 80.8 625.82 80.8 615.72 80.8 615.72 90.89 615.72 100.99 625.82 100.99 635.92 100.99 646.01 100.99 656.11 100.99 656.11 90.89 656.11 80.8 646.01 80.8"/><rect class="cls-7" x="888.3" y="70.7" width="10.1" height="10.1"/><polygon class="cls-9" points="918.59 60.6 908.5 60.6 898.4 60.6 888.3 60.6 888.3 70.7 898.4 70.7 898.4 80.8 908.5 80.8 918.59 80.8 928.69 80.8 928.69 70.7 928.69 60.6 918.59 60.6"/><polygon class="cls-12" points="918.59 80.8 908.5 80.8 898.4 80.8 888.3 80.8 888.3 90.89 888.3 100.99 898.4 100.99 908.5 100.99 918.59 100.99 928.69 100.99 928.69 90.89 928.69 80.8 918.59 80.8"/><rect class="cls-7" x="827.56" y="70.7" width="10.1" height="10.1"/><polygon class="cls-9" points="857.86 60.6 847.76 60.6 837.66 60.6 827.56 60.6 827.56 70.7 837.66 70.7 837.66 80.8 847.76 80.8 857.86 80.8 867.95 80.8 867.95 70.7 867.95 60.6 857.86 60.6"/><polygon class="cls-12" points="857.86 80.8 847.76 80.8 837.66 80.8 827.56 80.8 827.56 90.89 827.56 100.99 837.66 100.99 847.76 100.99 857.86 100.99 867.95 100.99 867.95 90.89 867.95 80.8 857.86 80.8"/><rect class="cls-7" x="767.01" y="70.7" width="10.1" height="10.1"/><polygon class="cls-9" points="797.3 60.6 787.21 60.6 777.11 60.6 767.01 60.6 767.01 70.7 777.11 70.7 777.11 80.8 787.21 80.8 797.3 80.8 807.4 80.8 807.4 70.7 807.4 60.6 797.3 60.6"/><polygon class="cls-12" points="797.3 80.8 787.21 80.8 777.11 80.8 767.01 80.8 767.01 90.89 767.01 100.99 777.11 100.99 787.21 100.99 797.3 100.99 807.4 100.99 807.4 90.89 807.4 80.8 797.3 80.8"/><rect class="cls-7" x="222.09" y="70.7" width="10.1" height="10.1"/><polygon class="cls-9" points="252.39 60.6 242.29 60.6 232.19 60.6 222.09 60.6 222.09 70.7 232.19 70.7 232.19 80.8 242.29 80.8 252.39 80.8 262.48 80.8 262.48 70.7 262.48 60.6 252.39 60.6"/><polygon class="cls-12" points="252.39 80.8 242.29 80.8 232.19 80.8 222.09 80.8 222.09 90.89 222.09 100.99 232.19 100.99 242.29 100.99 252.39 100.99 262.48 100.99 262.48 90.89 262.48 80.8 252.39 80.8"/><rect class="cls-7" x="161.54" y="70.7" width="10.1" height="10.1"/><polygon class="cls-9" points="191.83 60.6 181.74 60.6 171.64 60.6 161.54 60.6 161.54 70.7 171.64 70.7 171.64 80.8 181.74 80.8 191.83 80.8 201.93 80.8 201.93 70.7 201.93 60.6 191.83 60.6"/><polygon class="cls-12" points="191.83 80.8 181.74 80.8 171.64 80.8 161.54 80.8 161.54 90.89 161.54 100.99 171.64 100.99 181.74 100.99 191.83 100.99 201.93 100.99 201.93 90.89 201.93 80.8 191.83 80.8"/><rect class="cls-7" x="282.65" y="70.7" width="10.1" height="10.1"/><polygon class="cls-9" points="312.94 60.6 302.84 60.6 292.74 60.6 282.65 60.6 282.65 70.7 292.74 70.7 292.74 80.8 302.84 80.8 312.94 80.8 323.04 80.8 323.04 70.7 323.04 60.6 312.94 60.6"/><polygon class="cls-12" points="312.94 80.8 302.84 80.8 292.74 80.8 282.65 80.8 282.65 90.89 282.65 100.99 292.74 100.99 302.84 100.99 312.94 100.99 323.04 100.99 323.04 90.89 323.04 80.8 312.94 80.8"/><polygon class="cls-7" points="1124.04 393.87 1113.95 393.87 1113.95 403.96 1124.04 403.96 1134.14 403.96 1134.14 393.87 1124.04 393.87"/><polygon class="cls-9" points="1134.14 383.77 1124.04 383.77 1113.95 383.77 1103.85 383.77 1103.85 393.87 1103.85 403.96 1113.95 403.96 1113.95 393.87 1124.04 393.87 1134.14 393.87 1134.14 403.96 1144.24 403.96 1144.24 393.87 1144.24 383.77 1134.14 383.77"/><polygon class="cls-12" points="1134.14 403.96 1124.04 403.96 1113.95 403.96 1103.85 403.96 1103.85 414.06 1103.85 424.16 1113.95 424.16 1124.04 424.16 1134.14 424.16 1144.24 424.16 1144.24 414.06 1144.24 403.96 1134.14 403.96"/><polygon class="cls-7" points="1002.88 393.87 992.78 393.87 992.78 403.96 1002.88 403.96 1012.98 403.96 1012.98 393.87 1002.88 393.87"/><polygon class="cls-9" points="1012.98 383.77 1002.88 383.77 992.78 383.77 982.68 383.77 982.68 393.87 982.68 403.96 992.78 403.96 992.78 393.87 1002.88 393.87 1012.98 393.87 1012.98 403.96 1023.07 403.96 1023.07 393.87 1023.07 383.77 1012.98 383.77"/><polygon class="cls-12" points="1012.98 403.96 1002.88 403.96 992.78 403.96 982.68 403.96 982.68 414.06 982.68 424.16 992.78 424.16 1002.88 424.16 1012.98 424.16 1023.07 424.16 1023.07 414.06 1023.07 403.96 1012.98 403.96"/><rect class="cls-6" x="1053.36" y="343.38" width="10.1" height="10.1" transform="translate(2116.83 696.86) rotate(180)"/><rect class="cls-7" x="1053.36" y="333.28" width="10.1" height="10.1" transform="translate(2116.83 676.66) rotate(180)"/><polygon class="cls-12" points="1073.56 343.38 1063.46 343.38 1063.46 353.48 1053.36 353.48 1053.36 343.38 1043.27 343.38 1043.27 353.48 1043.27 363.57 1053.36 363.57 1063.46 363.57 1073.56 363.57 1083.66 363.57 1083.66 353.48 1083.66 343.38 1073.56 343.38"/><polygon class="cls-9" points="1073.56 323.19 1063.46 323.19 1053.36 323.19 1043.27 323.19 1043.27 333.28 1043.27 343.38 1053.36 343.38 1053.36 333.28 1063.46 333.28 1063.46 343.38 1073.56 343.38 1083.66 343.38 1083.66 333.28 1083.66 323.19 1073.56 323.19"/><rect class="cls-6" x="1053.36" y="403.96" width="10.1" height="10.1" transform="translate(2116.83 818.02) rotate(180)"/><rect class="cls-7" x="1053.36" y="393.87" width="10.1" height="10.1" transform="translate(2116.83 797.83) rotate(180)"/><polygon class="cls-12" points="1073.56 403.96 1063.46 403.96 1063.46 414.06 1053.36 414.06 1053.36 403.96 1043.27 403.96 1043.27 414.06 1043.27 424.16 1053.36 424.16 1063.46 424.16 1073.56 424.16 1083.66 424.16 1083.66 414.06 1083.66 403.96 1073.56 403.96"/><polygon class="cls-9" points="1073.56 383.77 1063.46 383.77 1053.36 383.77 1043.27 383.77 1043.27 393.87 1043.27 403.96 1053.36 403.96 1053.36 393.87 1063.46 393.87 1063.46 403.96 1073.56 403.96 1083.66 403.96 1083.66 393.87 1083.66 383.77 1073.56 383.77"/><polygon class="cls-9" points="151.48 383.77 141.38 383.77 131.28 383.77 121.18 383.77 111.09 383.77 111.09 393.87 111.09 403.96 121.18 403.96 121.18 393.87 131.28 393.87 141.38 393.87 151.48 393.87 151.48 403.96 161.57 403.96 161.57 393.87 161.57 383.77 151.48 383.77"/><polygon class="cls-7" points="141.38 393.87 131.28 393.87 121.18 393.87 121.18 403.96 131.28 403.96 141.38 403.96 151.48 403.96 151.48 393.87 141.38 393.87"/><polygon class="cls-12" points="151.48 403.96 141.38 403.96 131.28 403.96 121.18 403.96 111.09 403.96 111.09 414.06 111.09 424.16 121.18 424.16 131.28 424.16 141.38 424.16 151.48 424.16 161.57 424.16 161.57 414.06 161.57 403.96 151.48 403.96"/><polygon class="cls-9" points="80.8 323.19 70.7 323.19 60.6 323.19 50.5 323.19 40.41 323.19 40.41 333.28 40.41 343.38 50.5 343.38 50.5 333.28 60.6 333.28 70.7 333.28 80.8 333.28 80.8 343.38 90.89 343.38 90.89 333.28 90.89 323.19 80.8 323.19"/><polygon class="cls-7" points="70.7 333.28 60.6 333.28 50.5 333.28 50.5 343.38 60.6 343.38 70.7 343.38 80.8 343.38 80.8 333.28 70.7 333.28"/><polygon class="cls-12" points="80.8 343.38 70.7 343.38 60.6 343.38 50.5 343.38 40.41 343.38 40.41 353.48 40.41 363.57 50.5 363.57 60.6 363.57 70.7 363.57 80.8 363.57 90.89 363.57 90.89 353.48 90.89 343.38 80.8 343.38"/><polygon class="cls-9" points="80.8 383.77 70.7 383.77 60.6 383.77 50.5 383.77 40.41 383.77 40.41 393.87 40.41 403.96 50.5 403.96 50.5 393.87 60.6 393.87 70.7 393.87 80.8 393.87 80.8 403.96 90.89 403.96 90.89 393.87 90.89 383.77 80.8 383.77"/><polygon class="cls-7" points="70.7 393.87 60.6 393.87 50.5 393.87 50.5 403.96 60.6 403.96 70.7 403.96 80.8 403.96 80.8 393.87 70.7 393.87"/><polygon class="cls-12" points="80.8 403.96 70.7 403.96 60.6 403.96 50.5 403.96 40.41 403.96 40.41 414.06 40.41 424.16 50.5 424.16 60.6 424.16 70.7 424.16 80.8 424.16 90.89 424.16 90.89 414.06 90.89 403.96 80.8 403.96"/><polygon class="cls-9" points="222.06 383.77 211.97 383.77 201.87 383.77 191.77 383.77 181.68 383.77 181.68 393.87 181.68 403.96 191.77 403.96 191.77 393.87 201.87 393.87 211.97 393.87 222.06 393.87 222.06 403.96 232.16 403.96 232.16 393.87 232.16 383.77 222.06 383.77"/><polygon class="cls-7" points="211.97 393.87 201.87 393.87 191.77 393.87 191.77 403.96 201.87 403.96 211.97 403.96 222.06 403.96 222.06 393.87 211.97 393.87"/><polygon class="cls-12" points="222.06 403.96 211.97 403.96 201.87 403.96 191.77 403.96 181.68 403.96 181.68 414.06 181.68 424.16 191.77 424.16 201.87 424.16 211.97 424.16 222.06 424.16 232.16 424.16 232.16 414.06 232.16 403.96 222.06 403.96"/><polygon class="cls-9" points="918.38 383.77 908.29 383.77 898.19 383.77 888.09 383.77 877.99 383.77 877.99 393.87 877.99 403.96 888.09 403.96 888.09 393.87 898.19 393.87 908.29 393.87 918.38 393.87 918.38 403.96 928.48 403.96 928.48 393.87 928.48 383.77 918.38 383.77"/><polygon class="cls-7" points="908.29 393.87 898.19 393.87 888.09 393.87 888.09 403.96 898.19 403.96 908.29 403.96 918.38 403.96 918.38 393.87 908.29 393.87"/><polygon class="cls-12" points="918.38 403.96 908.29 403.96 898.19 403.96 888.09 403.96 877.99 403.96 877.99 414.06 877.99 424.16 888.09 424.16 898.19 424.16 908.29 424.16 918.38 424.16 928.48 424.16 928.48 414.06 928.48 403.96 918.38 403.96"/><polygon class="cls-9" points="847.79 383.77 837.7 383.77 827.6 383.77 817.5 383.77 807.41 383.77 807.41 393.87 807.41 403.96 817.5 403.96 817.5 393.87 827.6 393.87 837.7 393.87 847.79 393.87 847.79 403.96 857.89 403.96 857.89 393.87 857.89 383.77 847.79 383.77"/><polygon class="cls-7" points="837.7 393.87 827.6 393.87 817.5 393.87 817.5 403.96 827.6 403.96 837.7 403.96 847.79 403.96 847.79 393.87 837.7 393.87"/><polygon class="cls-12" points="847.79 403.96 837.7 403.96 827.6 403.96 817.5 403.96 807.41 403.96 807.41 414.06 807.41 424.16 817.5 424.16 827.6 424.16 837.7 424.16 847.79 424.16 857.89 424.16 857.89 414.06 857.89 403.96 847.79 403.96"/><polygon class="cls-9" points="777.11 383.77 767.02 383.77 756.92 383.77 746.82 383.77 736.73 383.77 736.73 393.87 736.73 403.96 746.82 403.96 746.82 393.87 756.92 393.87 767.02 393.87 777.11 393.87 777.11 403.96 787.21 403.96 787.21 393.87 787.21 383.77 777.11 383.77"/><polygon class="cls-7" points="767.02 393.87 756.92 393.87 746.82 393.87 746.82 403.96 756.92 403.96 767.02 403.96 777.11 403.96 777.11 393.87 767.02 393.87"/><polygon class="cls-12" points="777.11 403.96 767.02 403.96 756.92 403.96 746.82 403.96 736.73 403.96 736.73 414.06 736.73 424.16 746.82 424.16 756.92 424.16 767.02 424.16 777.11 424.16 787.21 424.16 787.21 414.06 787.21 403.96 777.11 403.96"/><polygon class="cls-7" points="686.07 393.87 686.07 403.96 686.07 414.06 696.17 414.06 696.17 403.96 696.17 393.87 686.07 393.87"/><polygon class="cls-9" points="706.26 383.77 696.17 383.77 686.07 383.77 675.97 383.77 665.88 383.77 665.88 393.87 665.88 403.96 675.97 403.96 686.07 403.96 686.07 393.87 696.17 393.87 696.17 403.96 706.26 403.96 716.36 403.96 716.36 393.87 716.36 383.77 706.26 383.77"/><polygon class="cls-12" points="706.26 403.96 696.17 403.96 696.17 414.06 686.07 414.06 686.07 403.96 675.97 403.96 665.88 403.96 665.88 414.06 665.88 424.16 675.97 424.16 686.07 424.16 696.17 424.16 706.26 424.16 716.36 424.16 716.36 414.06 716.36 403.96 706.26 403.96"/><rect class="cls-9" x="817.89" y="262.56" width="10.1" height="10.1"/><rect class="cls-9" x="817.89" y="282.75" width="10.1" height="10.1"/><polygon class="cls-13" points="848.18 262.56 838.08 262.56 827.99 262.56 827.99 272.66 817.89 272.66 817.89 282.75 827.99 282.75 838.08 282.75 848.18 282.75 858.28 282.75 858.28 272.66 858.28 262.56 848.18 262.56"/><polygon class="cls-14" points="848.18 282.75 838.08 282.75 827.99 282.75 827.99 292.85 817.89 292.85 817.89 302.95 827.99 302.95 838.08 302.95 848.18 302.95 858.28 302.95 858.28 292.85 858.28 282.75 848.18 282.75"/><rect class="cls-9" x="745.2" y="201.93" width="10.1" height="10.1"/><rect class="cls-9" x="745.2" y="222.13" width="10.1" height="10.1"/><polygon class="cls-5" points="775.5 201.93 765.4 201.93 755.3 201.93 755.3 212.03 745.2 212.03 745.2 222.13 755.3 222.13 765.4 222.13 775.5 222.13 785.59 222.13 785.59 212.03 785.59 201.93 775.5 201.93"/><polygon class="cls-4" points="775.5 222.13 765.4 222.13 755.3 222.13 755.3 232.22 745.2 232.22 745.2 242.32 755.3 242.32 765.4 242.32 775.5 242.32 785.59 242.32 785.59 232.22 785.59 222.13 775.5 222.13"/><rect class="cls-9" x="758.23" y="262.56" width="10.1" height="10.1"/><rect class="cls-9" x="758.23" y="282.75" width="10.1" height="10.1"/><polygon class="cls-5" points="788.52 262.56 778.42 262.56 768.32 262.56 768.32 272.66 758.22 272.66 758.22 282.75 768.32 282.75 778.42 282.75 788.52 282.75 798.61 282.75 798.61 272.66 798.61 262.56 788.52 262.56"/><polygon class="cls-4" points="788.52 282.75 778.42 282.75 768.32 282.75 768.32 292.85 758.22 292.85 758.22 302.95 768.32 302.95 778.42 302.95 788.52 302.95 798.61 302.95 798.61 292.85 798.61 282.75 788.52 282.75"/><rect class="cls-9" x="807.61" y="201.93" width="10.1" height="10.1"/><rect class="cls-9" x="807.61" y="222.13" width="10.1" height="10.1"/><polygon class="cls-5" points="837.9 201.93 827.8 201.93 817.7 201.93 817.7 212.03 807.61 212.03 807.61 222.13 817.7 222.13 827.8 222.13 837.9 222.13 848 222.13 848 212.03 848 201.93 837.9 201.93"/><polygon class="cls-4" points="837.9 222.13 827.8 222.13 817.7 222.13 817.7 232.22 807.61 232.22 807.61 242.32 817.7 242.32 827.8 242.32 837.9 242.32 848 242.32 848 232.22 848 222.13 837.9 222.13"/><rect class="cls-9" x="817.89" y="262.56" width="10.1" height="10.1"/><rect class="cls-9" x="817.89" y="282.75" width="10.1" height="10.1"/><polygon class="cls-5" points="848.18 262.56 838.08 262.56 827.99 262.56 827.99 272.66 817.89 272.66 817.89 282.75 827.99 282.75 838.08 282.75 848.18 282.75 858.28 282.75 858.28 272.66 858.28 262.56 848.18 262.56"/><polygon class="cls-4" points="848.18 282.75 838.08 282.75 827.99 282.75 827.99 292.85 817.89 292.85 817.89 302.95 827.99 302.95 838.08 302.95 848.18 302.95 858.28 302.95 858.28 292.85 858.28 282.75 848.18 282.75"/><rect class="cls-9" x="664.97" y="323.19" width="10.1" height="10.1"/><rect class="cls-9" x="664.97" y="343.38" width="10.1" height="10.1"/><polygon class="cls-5" points="695.26 323.19 685.17 323.19 675.07 323.19 675.07 333.28 664.97 333.28 664.97 343.38 675.07 343.38 685.17 343.38 695.26 343.38 705.36 343.38 705.36 333.28 705.36 323.19 695.26 323.19"/><polygon class="cls-4" points="695.26 343.38 685.17 343.38 675.07 343.38 675.07 353.48 664.97 353.48 664.97 363.57 675.07 363.57 685.17 363.57 695.26 363.57 705.36 363.57 705.36 353.48 705.36 343.38 695.26 343.38"/><rect class="cls-9" x="726.52" y="323.19" width="10.1" height="10.1"/><rect class="cls-9" x="726.52" y="343.38" width="10.1" height="10.1"/><polygon class="cls-5" points="756.81 323.19 746.71 323.19 736.61 323.19 736.61 333.28 726.52 333.28 726.52 343.38 736.61 343.38 746.71 343.38 756.81 343.38 766.9 343.38 766.9 333.28 766.9 323.19 756.81 323.19"/><polygon class="cls-4" points="756.81 343.38 746.71 343.38 736.61 343.38 736.61 353.48 726.52 353.48 726.52 363.57 736.61 363.57 746.71 363.57 756.81 363.57 766.9 363.57 766.9 353.48 766.9 343.38 756.81 343.38"/><rect class="cls-9" x="111.09" y="323.19" width="10.1" height="10.1"/><rect class="cls-9" x="111.09" y="343.38" width="10.1" height="10.1"/><polygon class="cls-5" points="141.38 323.19 131.28 323.19 121.18 323.19 121.18 333.28 111.09 333.28 111.09 343.38 121.18 343.38 131.28 343.38 141.38 343.38 151.48 343.38 151.48 333.28 151.48 323.19 141.38 323.19"/><polygon class="cls-4" points="141.38 343.38 131.28 343.38 121.18 343.38 121.18 353.48 111.09 353.48 111.09 363.57 121.18 363.57 131.28 363.57 141.38 363.57 151.48 363.57 151.48 353.48 151.48 343.38 141.38 343.38"/><rect class="cls-9" x="603.43" y="323.19" width="10.1" height="10.1"/><rect class="cls-9" x="603.43" y="343.38" width="10.1" height="10.1"/><polygon class="cls-5" points="633.72 323.19 623.62 323.19 613.53 323.19 613.53 333.28 603.43 333.28 603.43 343.38 613.53 343.38 623.62 343.38 633.72 343.38 643.82 343.38 643.82 333.28 643.82 323.19 633.72 323.19"/><polygon class="cls-4" points="633.72 343.38 623.62 343.38 613.53 343.38 613.53 353.48 603.43 353.48 603.43 363.57 613.53 363.57 623.62 363.57 633.72 363.57 643.82 363.57 643.82 353.48 643.82 343.38 633.72 343.38"/><polygon class="cls-9" points="90.89 201.93 80.8 201.93 70.7 201.93 60.6 201.93 50.5 201.93 40.41 201.93 40.41 212.03 40.41 222.13 50.5 222.13 60.6 222.13 60.6 212.03 70.7 212.03 80.8 212.03 80.8 222.13 90.89 222.13 100.99 222.13 100.99 212.03 100.99 201.93 90.89 201.93"/><polygon class="cls-7" points="70.7 212.03 60.6 212.03 60.6 222.13 70.7 222.13 80.8 222.13 80.8 212.03 70.7 212.03"/><polygon class="cls-12" points="90.89 222.13 80.8 222.13 70.7 222.13 60.6 222.13 50.5 222.13 40.41 222.13 40.41 232.22 40.41 242.32 50.5 242.32 60.6 242.32 70.7 242.32 80.8 242.32 90.89 242.32 100.99 242.32 100.99 232.22 100.99 222.13 90.89 222.13"/><polygon class="cls-12" points="124.55 282.75 107.71 282.75 90.88 282.75 74.07 282.75 74.05 282.75 57.24 282.75 40.41 282.75 40.41 292.85 40.41 302.95 57.24 302.95 74.05 302.95 74.07 302.95 90.88 302.95 107.71 302.95 124.55 302.95 141.38 302.95 141.38 292.85 141.38 282.75 124.55 282.75"/><polygon class="cls-9" points="847.71 333.28 857.81 333.28 867.9 333.28 867.91 333.28 877.99 333.28 877.99 343.38 888.09 343.38 898.19 343.38 908.29 343.38 918.38 343.38 928.48 343.38 928.48 333.28 928.48 323.19 918.38 323.19 908.29 323.19 898.19 323.19 888.09 323.19 877.99 323.19 867.91 323.19 867.9 323.19 857.81 323.19 847.71 323.19 845.7 323.19 837.61 323.19 827.51 323.19 817.41 323.19 807.31 323.19 797.22 323.19 787.12 323.19 787.12 333.28 787.12 343.38 797.22 343.38 807.31 343.38 817.41 343.38 827.51 343.38 837.61 343.38 837.61 333.28 845.7 333.28 847.71 333.28"/><polygon class="cls-7" points="864.75 333.28 864.73 333.28 851.49 333.28 837.61 333.28 837.61 343.38 851.49 343.38 864.73 343.38 864.75 343.38 877.99 343.38 877.99 333.28 864.75 333.28"/><polygon class="cls-12" points="910.81 343.38 893.13 343.38 875.46 343.38 857.79 343.38 840.12 343.38 822.47 343.38 822.44 343.38 804.79 343.38 787.12 343.38 787.12 353.48 787.12 363.57 804.79 363.57 822.44 363.57 822.47 363.57 840.12 363.57 857.79 363.57 875.46 363.57 893.13 363.57 910.81 363.57 928.48 363.57 928.48 353.48 928.48 343.38 910.81 343.38"/><polygon class="cls-2" points="636.08 383.77 625.98 383.77 615.88 383.77 605.79 383.77 595.69 383.77 585.59 383.77 575.49 383.77 565.4 383.77 555.3 383.77 545.2 383.77 535.11 383.77 525.01 383.77 514.91 383.77 504.81 383.77 494.72 383.77 484.62 383.77 474.52 383.77 464.43 383.77 454.33 383.77 444.23 383.77 434.13 383.77 424.04 383.77 413.94 383.77 403.84 383.77 393.74 383.77 383.65 383.77 373.55 383.77 363.45 383.77 353.36 383.77 343.26 383.77 333.16 383.77 323.06 383.77 312.97 383.77 302.87 383.77 292.77 383.77 282.68 383.77 272.58 383.77 262.48 383.77 252.38 383.77 252.38 393.87 252.38 403.96 262.48 403.96 272.58 403.96 282.68 403.96 292.77 403.96 302.87 403.96 312.97 403.96 323.06 403.96 333.16 403.96 343.26 403.96 353.36 403.96 363.45 403.96 373.55 403.96 383.65 403.96 393.74 403.96 403.84 403.96 413.94 403.96 424.04 403.96 434.13 403.96 444.23 403.96 454.33 403.96 464.43 403.96 474.52 403.96 484.62 403.96 494.72 403.96 504.81 403.96 514.91 403.96 525.01 403.96 535.11 403.96 545.2 403.96 555.3 403.96 565.4 403.96 575.49 403.96 585.59 403.96 595.69 403.96 605.79 403.96 615.88 403.96 625.98 403.96 636.08 403.96 646.17 403.96 646.17 393.87 646.17 383.77 636.08 383.77"/><polygon class="cls-1" points="636.08 403.96 625.98 403.96 615.88 403.96 605.79 403.96 595.69 403.96 585.59 403.96 575.49 403.96 565.4 403.96 555.3 403.96 545.2 403.96 535.11 403.96 525.01 403.96 514.91 403.96 504.81 403.96 494.72 403.96 484.62 403.96 474.52 403.96 464.43 403.96 454.33 403.96 444.23 403.96 434.13 403.96 424.04 403.96 413.94 403.96 403.84 403.96 393.74 403.96 383.65 403.96 373.55 403.96 363.45 403.96 353.36 403.96 343.26 403.96 333.16 403.96 323.06 403.96 312.97 403.96 302.87 403.96 292.77 403.96 282.68 403.96 272.58 403.96 262.48 403.96 252.38 403.96 252.38 414.06 252.38 424.16 262.48 424.16 272.58 424.16 282.68 424.16 292.77 424.16 302.87 424.16 312.97 424.16 323.06 424.16 333.16 424.16 343.26 424.16 353.36 424.16 363.45 424.16 373.55 424.16 383.65 424.16 393.74 424.16 403.84 424.16 413.94 424.16 424.04 424.16 434.13 424.16 444.23 424.16 454.33 424.16 464.43 424.16 474.52 424.16 484.62 424.16 494.72 424.16 504.81 424.16 514.91 424.16 525.01 424.16 535.11 424.16 545.2 424.16 555.3 424.16 565.4 424.16 575.49 424.16 585.59 424.16 595.69 424.16 605.79 424.16 615.88 424.16 625.98 424.16 636.08 424.16 646.17 424.16 646.17 414.06 646.17 403.96 636.08 403.96"/><rect class="cls-9" x="280.9" y="262.56" width="10.1" height="10.1"/><polygon class="cls-11" points="311.19 262.56 301.1 262.56 291 262.56 291 272.66 280.9 272.66 280.9 282.75 291 282.75 301.1 282.75 311.19 282.75 321.29 282.75 321.29 272.66 321.29 262.56 311.19 262.56"/><polygon class="cls-15" points="311.19 282.75 301.1 282.75 291 282.75 280.9 282.75 280.9 292.85 280.9 302.95 291 302.95 301.1 302.95 311.19 302.95 321.29 302.95 321.29 292.85 321.29 282.75 311.19 282.75"/><rect class="cls-9" x="221.24" y="262.56" width="10.1" height="10.1"/><polygon class="cls-11" points="251.53 262.56 241.43 262.56 231.34 262.56 231.34 272.66 221.24 272.66 221.24 282.75 231.34 282.75 241.43 282.75 251.53 282.75 261.63 282.75 261.63 272.66 261.63 262.56 251.53 262.56"/><polygon class="cls-15" points="251.53 282.75 241.43 282.75 231.34 282.75 221.24 282.75 221.24 292.85 221.24 302.95 231.34 302.95 241.43 302.95 251.53 302.95 261.63 302.95 261.63 292.85 261.63 282.75 251.53 282.75"/><rect class="cls-9" x="682.8" y="201.93" width="10.1" height="10.1"/><polygon class="cls-2" points="713.09 201.93 703 201.93 692.9 201.93 692.9 212.03 682.8 212.03 682.8 222.13 692.9 222.13 703 222.13 713.09 222.13 723.19 222.13 723.19 212.03 723.19 201.93 713.09 201.93"/><polygon class="cls-1" points="713.09 222.13 703 222.13 692.9 222.13 682.8 222.13 682.8 232.22 682.8 242.32 692.9 242.32 703 242.32 713.09 242.32 723.19 242.32 723.19 232.22 723.19 222.13 713.09 222.13"/><rect class="cls-9" x="1315.67" y="323.19" width="10.1" height="10.1"/><polygon class="cls-2" points="1345.96 323.19 1335.86 323.19 1325.77 323.19 1325.77 333.28 1315.67 333.28 1315.67 343.38 1325.77 343.38 1335.86 343.38 1345.96 343.38 1356.06 343.38 1356.06 333.28 1356.06 323.19 1345.96 323.19"/><polygon class="cls-1" points="1345.96 343.38 1335.86 343.38 1325.77 343.38 1315.67 343.38 1315.67 353.48 1315.67 363.57 1325.77 363.57 1335.86 363.57 1345.96 363.57 1356.06 363.57 1356.06 353.48 1356.06 343.38 1345.96 343.38"/><rect class="cls-9" x="1315.67" y="383.77" width="10.1" height="10.1"/><polygon class="cls-2" points="1345.96 383.77 1335.86 383.77 1325.77 383.77 1325.77 393.87 1315.67 393.87 1315.67 403.96 1325.77 403.96 1335.86 403.96 1345.96 403.96 1356.06 403.96 1356.06 393.87 1356.06 383.77 1345.96 383.77"/><polygon class="cls-1" points="1345.96 403.96 1335.86 403.96 1325.77 403.96 1315.67 403.96 1315.67 414.06 1315.67 424.16 1325.77 424.16 1335.86 424.16 1345.96 424.16 1356.06 424.16 1356.06 414.06 1356.06 403.96 1345.96 403.96"/><rect class="cls-9" x="1315.67" y="262.51" width="10.1" height="10.1"/><polygon class="cls-2" points="1345.96 262.51 1335.86 262.51 1325.77 262.51 1325.77 272.61 1315.67 272.61 1315.67 282.71 1325.77 282.71 1335.86 282.71 1345.96 282.71 1356.06 282.71 1356.06 272.61 1356.06 262.51 1345.96 262.51"/><polygon class="cls-1" points="1345.96 282.71 1335.86 282.71 1325.77 282.71 1315.67 282.71 1315.67 292.81 1315.67 302.9 1325.77 302.9 1335.86 302.9 1345.96 302.9 1356.06 302.9 1356.06 292.81 1356.06 282.71 1345.96 282.71"/><rect class="cls-9" x="1194.56" y="201.93" width="10.1" height="10.1"/><polygon class="cls-2" points="1224.86 201.93 1214.76 201.93 1204.66 201.93 1204.66 212.03 1194.56 212.03 1194.56 222.13 1204.66 222.13 1214.76 222.13 1224.86 222.13 1234.95 222.13 1234.95 212.03 1234.95 201.93 1224.86 201.93"/><polygon class="cls-1" points="1224.86 222.13 1214.76 222.13 1204.66 222.13 1194.56 222.13 1194.56 232.22 1194.56 242.32 1204.66 242.32 1214.76 242.32 1224.86 242.32 1234.95 242.32 1234.95 232.22 1234.95 222.13 1224.86 222.13"/><rect class="cls-9" x="1315.67" y="201.93" width="10.1" height="10.1"/><polygon class="cls-2" points="1345.96 201.93 1335.86 201.93 1325.77 201.93 1325.77 212.03 1315.67 212.03 1315.67 222.13 1325.77 222.13 1335.86 222.13 1345.96 222.13 1356.06 222.13 1356.06 212.03 1356.06 201.93 1345.96 201.93"/><polygon class="cls-1" points="1345.96 222.13 1335.86 222.13 1325.77 222.13 1315.67 222.13 1315.67 232.22 1315.67 242.32 1325.77 242.32 1335.86 242.32 1345.96 242.32 1356.06 242.32 1356.06 232.22 1356.06 222.13 1345.96 222.13"/><rect class="cls-9" x="1194.56" y="262.51" width="10.1" height="10.1"/><polygon class="cls-2" points="1224.86 262.51 1214.76 262.51 1204.66 262.51 1204.66 272.61 1194.56 272.61 1194.56 282.71 1204.66 282.71 1214.76 282.71 1224.86 282.71 1234.95 282.71 1234.95 272.61 1234.95 262.51 1224.86 262.51"/><polygon class="cls-1" points="1224.86 282.71 1214.76 282.71 1204.66 282.71 1194.56 282.71 1194.56 292.81 1194.56 302.9 1204.66 302.9 1214.76 302.9 1224.86 302.9 1234.95 302.9 1234.95 292.81 1234.95 282.71 1224.86 282.71"/><rect class="cls-9" x="1194.56" y="323.19" width="10.1" height="10.1"/><polygon class="cls-2" points="1224.86 323.19 1214.76 323.19 1204.66 323.19 1204.66 333.28 1194.56 333.28 1194.56 343.38 1204.66 343.38 1214.76 343.38 1224.86 343.38 1234.95 343.38 1234.95 333.28 1234.95 323.19 1224.86 323.19"/><polygon class="cls-1" points="1224.86 343.38 1214.76 343.38 1204.66 343.38 1194.56 343.38 1194.56 353.48 1194.56 363.57 1204.66 363.57 1214.76 363.57 1224.86 363.57 1234.95 363.57 1234.95 353.48 1234.95 343.38 1224.86 343.38"/><rect class="cls-9" x="1255.12" y="323.19" width="10.1" height="10.1"/><polygon class="cls-2" points="1285.41 323.19 1275.31 323.19 1265.21 323.19 1265.21 333.28 1255.12 333.28 1255.12 343.38 1265.21 343.38 1275.31 343.38 1285.41 343.38 1295.51 343.38 1295.51 333.28 1295.51 323.19 1285.41 323.19"/><polygon class="cls-1" points="1285.41 343.38 1275.31 343.38 1265.21 343.38 1255.12 343.38 1255.12 353.48 1255.12 363.57 1265.21 363.57 1275.31 363.57 1285.41 363.57 1295.51 363.57 1295.51 353.48 1295.51 343.38 1285.41 343.38"/><rect class="cls-9" x="1255.12" y="262.51" width="10.1" height="10.1"/><polygon class="cls-2" points="1285.41 262.51 1275.31 262.51 1265.21 262.51 1265.21 272.61 1255.12 272.61 1255.12 282.71 1265.21 282.71 1275.31 282.71 1285.41 282.71 1295.51 282.71 1295.51 272.61 1295.51 262.51 1285.41 262.51"/><polygon class="cls-1" points="1285.41 282.71 1275.31 282.71 1265.21 282.71 1255.12 282.71 1255.12 292.81 1255.12 302.9 1265.21 302.9 1275.31 302.9 1285.41 302.9 1295.51 302.9 1295.51 292.81 1295.51 282.71 1285.41 282.71"/><rect class="cls-9" x="1255.12" y="201.93" width="10.1" height="10.1"/><polygon class="cls-2" points="1285.41 201.93 1275.31 201.93 1265.21 201.93 1265.21 212.03 1255.12 212.03 1255.12 222.13 1265.21 222.13 1275.31 222.13 1285.41 222.13 1295.51 222.13 1295.51 212.03 1295.51 201.93 1285.41 201.93"/><polygon class="cls-1" points="1285.41 222.13 1275.31 222.13 1265.21 222.13 1255.12 222.13 1255.12 232.22 1255.12 242.32 1265.21 242.32 1275.31 242.32 1285.41 242.32 1295.51 242.32 1295.51 232.22 1295.51 222.13 1285.41 222.13"/><rect class="cls-9" x="183.59" y="201.93" width="10.1" height="10.1"/><polygon class="cls-2" points="213.88 201.93 203.78 201.93 193.68 201.93 193.68 212.03 183.59 212.03 183.59 222.13 193.68 222.13 203.78 222.13 213.88 222.13 223.98 222.13 223.98 212.03 223.98 201.93 213.88 201.93"/><polygon class="cls-1" points="213.88 222.13 203.78 222.13 193.68 222.13 183.59 222.13 183.59 232.22 183.59 242.32 193.68 242.32 203.78 242.32 213.88 242.32 223.98 242.32 223.98 232.22 223.98 222.13 213.88 222.13"/><rect class="cls-9" x="245.99" y="201.96" width="10.1" height="10.1"/><polygon class="cls-2" points="276.28 201.96 266.18 201.96 256.09 201.96 256.09 212.06 245.99 212.06 245.99 222.16 256.09 222.16 266.18 222.16 276.28 222.16 286.38 222.16 286.38 212.06 286.38 201.96 276.28 201.96"/><polygon class="cls-1" points="276.28 222.16 266.18 222.16 256.09 222.16 245.99 222.16 245.99 232.25 245.99 242.35 256.09 242.35 266.18 242.35 276.28 242.35 286.38 242.35 286.38 232.25 286.38 222.16 276.28 222.16"/><rect class="cls-9" x="308.39" y="201.99" width="10.1" height="10.1"/><polygon class="cls-2" points="338.68 201.99 328.59 201.99 318.49 201.99 318.49 212.09 308.39 212.09 308.39 222.19 318.49 222.19 328.59 222.19 338.68 222.19 348.78 222.19 348.78 212.09 348.78 201.99 338.68 201.99"/><polygon class="cls-1" points="338.68 222.19 328.59 222.19 318.49 222.19 308.39 222.19 308.39 232.28 308.39 242.38 318.49 242.38 328.59 242.38 338.68 242.38 348.78 242.38 348.78 232.28 348.78 222.19 338.68 222.19"/><rect class="cls-9" x="370.79" y="202.02" width="10.1" height="10.1"/><polygon class="cls-2" points="401.08 202.02 390.99 202.02 380.89 202.02 380.89 212.12 370.79 212.12 370.79 222.22 380.89 222.22 390.99 222.22 401.08 222.22 411.18 222.22 411.18 212.12 411.18 202.02 401.08 202.02"/><polygon class="cls-1" points="401.08 222.22 390.99 222.22 380.89 222.22 370.79 222.22 370.79 232.31 370.79 242.41 380.89 242.41 390.99 242.41 401.08 242.41 411.18 242.41 411.18 232.31 411.18 222.22 401.08 222.22"/><rect class="cls-9" x="433.19" y="202.05" width="10.1" height="10.1"/><polygon class="cls-2" points="463.49 202.05 453.39 202.05 443.29 202.05 443.29 212.15 433.19 212.15 433.19 222.25 443.29 222.25 453.39 222.25 463.49 222.25 473.58 222.25 473.58 212.15 473.58 202.05 463.49 202.05"/><polygon class="cls-1" points="463.49 222.25 453.39 222.25 443.29 222.25 433.19 222.25 433.19 232.34 433.19 242.44 443.29 242.44 453.39 242.44 463.49 242.44 473.58 242.44 473.58 232.34 473.58 222.25 463.49 222.25"/><rect class="cls-9" x="495.6" y="202.08" width="10.1" height="10.1"/><polygon class="cls-2" points="525.89 202.08 515.79 202.08 505.69 202.08 505.69 212.18 495.6 212.18 495.6 222.27 505.69 222.27 515.79 222.27 525.89 222.27 535.99 222.27 535.99 212.18 535.99 202.08 525.89 202.08"/><polygon class="cls-1" points="525.89 222.27 515.79 222.27 505.69 222.27 495.6 222.27 495.6 232.37 495.6 242.47 505.69 242.47 515.79 242.47 525.89 242.47 535.99 242.47 535.99 232.37 535.99 222.27 525.89 222.27"/><rect class="cls-9" x="558" y="202.11" width="10.1" height="10.1"/><polygon class="cls-2" points="588.29 202.11 578.19 202.11 568.1 202.11 568.1 212.21 558 212.21 558 222.3 568.1 222.3 578.19 222.3 588.29 222.3 598.39 222.3 598.39 212.21 598.39 202.11 588.29 202.11"/><polygon class="cls-1" points="588.29 222.3 578.19 222.3 568.1 222.3 558 222.3 558 232.4 558 242.5 568.1 242.5 578.19 242.5 588.29 242.5 598.39 242.5 598.39 232.4 598.39 222.3 588.29 222.3"/><rect class="cls-9" x="620.4" y="202.14" width="10.1" height="10.1"/><polygon class="cls-2" points="650.69 202.14 640.6 202.14 630.5 202.14 630.5 212.24 620.4 212.24 620.4 222.33 630.5 222.33 640.6 222.33 650.69 222.33 660.79 222.33 660.79 212.24 660.79 202.14 650.69 202.14"/><polygon class="cls-1" points="650.69 222.33 640.6 222.33 630.5 222.33 620.4 222.33 620.4 232.43 620.4 242.53 630.5 242.53 640.6 242.53 650.69 242.53 660.79 242.53 660.79 232.43 660.79 222.33 650.69 222.33"/><rect class="cls-9" x="172.63" y="323.19" width="10.1" height="10.1"/><polygon class="cls-2" points="202.92 323.19 192.82 323.19 182.73 323.19 182.73 333.28 172.63 333.28 172.63 343.38 182.73 343.38 192.82 343.38 202.92 343.38 213.02 343.38 213.02 333.28 213.02 323.19 202.92 323.19"/><polygon class="cls-1" points="202.92 343.38 192.82 343.38 182.73 343.38 172.63 343.38 172.63 353.48 172.63 363.57 182.73 363.57 192.82 363.57 202.92 363.57 213.02 363.57 213.02 353.48 213.02 343.38 202.92 343.38"/><rect class="cls-9" x="234.17" y="323.16" width="10.1" height="10.1"/><polygon class="cls-2" points="264.46 323.16 254.37 323.16 244.27 323.16 244.27 333.26 234.17 333.26 234.17 343.36 244.27 343.36 254.37 343.36 264.46 343.36 274.56 343.36 274.56 333.26 274.56 323.16 264.46 323.16"/><polygon class="cls-1" points="264.46 343.36 254.37 343.36 244.27 343.36 234.17 343.36 234.17 353.46 234.17 363.55 244.27 363.55 254.37 363.55 264.46 363.55 274.56 363.55 274.56 353.46 274.56 343.36 264.46 343.36"/><rect class="cls-9" x="295.72" y="323.14" width="10.1" height="10.1"/><polygon class="cls-2" points="326.01 323.14 315.91 323.14 305.81 323.14 305.81 333.24 295.72 333.24 295.72 343.34 305.81 343.34 315.91 343.34 326.01 343.34 336.1 343.34 336.1 333.24 336.1 323.14 326.01 323.14"/><polygon class="cls-1" points="326.01 343.34 315.91 343.34 305.81 343.34 295.72 343.34 295.72 353.43 295.72 363.53 305.81 363.53 315.91 363.53 326.01 363.53 336.1 363.53 336.1 353.43 336.1 343.34 326.01 343.34"/><rect class="cls-9" x="357.26" y="323.12" width="10.1" height="10.1"/><polygon class="cls-2" points="387.55 323.12 377.45 323.12 367.36 323.12 367.36 333.22 357.26 333.22 357.26 343.31 367.36 343.31 377.45 343.31 387.55 343.31 397.65 343.31 397.65 333.22 397.65 323.12 387.55 323.12"/><polygon class="cls-1" points="387.55 343.31 377.45 343.31 367.36 343.31 357.26 343.31 357.26 353.41 357.26 363.51 367.36 363.51 377.45 363.51 387.55 363.51 397.65 363.51 397.65 353.41 397.65 343.31 387.55 343.31"/><rect class="cls-9" x="418.8" y="323.1" width="10.1" height="10.1"/><polygon class="cls-2" points="449.09 323.1 439 323.1 428.9 323.1 428.9 333.19 418.8 333.19 418.8 343.29 428.9 343.29 439 343.29 449.09 343.29 459.19 343.29 459.19 333.19 459.19 323.1 449.09 323.1"/><polygon class="cls-1" points="449.09 343.29 439 343.29 428.9 343.29 418.8 343.29 418.8 353.39 418.8 363.49 428.9 363.49 439 363.49 449.09 363.49 459.19 363.49 459.19 353.39 459.19 343.29 449.09 343.29"/><rect class="cls-9" x="480.34" y="323.08" width="10.1" height="10.1"/><polygon class="cls-2" points="510.64 323.08 500.54 323.08 490.44 323.08 490.44 333.17 480.34 333.17 480.34 343.27 490.44 343.27 500.54 343.27 510.64 343.27 520.73 343.27 520.73 333.17 520.73 323.08 510.64 323.08"/><polygon class="cls-1" points="510.64 343.27 500.54 343.27 490.44 343.27 480.34 343.27 480.34 353.37 480.34 363.46 490.44 363.46 500.54 363.46 510.64 363.46 520.73 363.46 520.73 353.37 520.73 343.27 510.64 343.27"/><rect class="cls-9" x="541.89" y="323.19" width="10.1" height="10.1"/><polygon class="cls-2" points="572.18 323.19 562.08 323.19 551.98 323.19 551.98 333.28 541.89 333.28 541.89 343.38 551.98 343.38 562.08 343.38 572.18 343.38 582.28 343.38 582.28 333.28 582.28 323.19 572.18 323.19"/><polygon class="cls-1" points="572.18 343.38 562.08 343.38 551.98 343.38 541.89 343.38 541.89 353.48 541.89 363.57 551.98 363.57 562.08 363.57 572.18 363.57 582.28 363.57 582.28 353.48 582.28 343.38 572.18 343.38"/><rect class="cls-9" x="161.57" y="262.56" width="10.1" height="10.1"/><polygon class="cls-2" points="191.86 262.56 181.77 262.56 171.67 262.56 171.67 272.66 161.57 272.66 161.57 282.75 171.67 282.75 181.77 282.75 191.86 282.75 201.96 282.75 201.96 272.66 201.96 262.56 191.86 262.56"/><polygon class="cls-1" points="191.86 282.75 181.77 282.75 171.67 282.75 161.57 282.75 161.57 292.85 161.57 302.95 171.67 302.95 181.77 302.95 191.86 302.95 201.96 302.95 201.96 292.85 201.96 282.75 191.86 282.75"/><rect class="cls-9" x="340.57" y="262.56" width="10.1" height="10.1"/><polygon class="cls-2" points="370.86 262.56 360.76 262.56 350.67 262.56 350.67 272.66 340.57 272.66 340.57 282.75 350.67 282.75 360.76 282.75 370.86 282.75 380.96 282.75 380.96 272.66 380.96 262.56 370.86 262.56"/><polygon class="cls-1" points="370.86 282.75 360.76 282.75 350.67 282.75 340.57 282.75 340.57 292.85 340.57 302.95 350.67 302.95 360.76 302.95 370.86 302.95 380.96 302.95 380.96 292.85 380.96 282.75 370.86 282.75"/><rect class="cls-9" x="400.23" y="262.56" width="10.1" height="10.1"/><polygon class="cls-2" points="430.53 262.56 420.43 262.56 410.33 262.56 410.33 272.66 400.23 272.66 400.23 282.75 410.33 282.75 420.43 282.75 430.53 282.75 440.62 282.75 440.62 272.66 440.62 262.56 430.53 262.56"/><polygon class="cls-1" points="430.53 282.75 420.43 282.75 410.33 282.75 400.23 282.75 400.23 292.85 400.23 302.95 410.33 302.95 420.43 302.95 430.53 302.95 440.62 302.95 440.62 292.85 440.62 282.75 430.53 282.75"/><rect class="cls-9" x="459.9" y="262.56" width="10.1" height="10.1"/><polygon class="cls-2" points="490.19 262.56 480.09 262.56 470 262.56 470 272.66 459.9 272.66 459.9 282.75 470 282.75 480.09 282.75 490.19 282.75 500.29 282.75 500.29 272.66 500.29 262.56 490.19 262.56"/><polygon class="cls-1" points="490.19 282.75 480.09 282.75 470 282.75 459.9 282.75 459.9 292.85 459.9 302.95 470 302.95 480.09 302.95 490.19 302.95 500.29 302.95 500.29 292.85 500.29 282.75 490.19 282.75"/><rect class="cls-9" x="519.56" y="262.56" width="10.1" height="10.1"/><polygon class="cls-2" points="549.86 262.56 539.76 262.56 529.66 262.56 529.66 272.66 519.56 272.66 519.56 282.75 529.66 282.75 539.76 282.75 549.86 282.75 559.95 282.75 559.95 272.66 559.95 262.56 549.86 262.56"/><polygon class="cls-1" points="549.86 282.75 539.76 282.75 529.66 282.75 519.56 282.75 519.56 292.85 519.56 302.95 529.66 302.95 539.76 302.95 549.86 302.95 559.95 302.95 559.95 292.85 559.95 282.75 549.86 282.75"/><rect class="cls-9" x="579.23" y="262.56" width="10.1" height="10.1"/><polygon class="cls-2" points="609.52 262.56 599.42 262.56 589.33 262.56 589.33 272.66 579.23 272.66 579.23 282.75 589.33 282.75 599.42 282.75 609.52 282.75 619.62 282.75 619.62 272.66 619.62 262.56 609.52 262.56"/><polygon class="cls-1" points="609.52 282.75 599.42 282.75 589.33 282.75 579.23 282.75 579.23 292.85 579.23 302.95 589.33 302.95 599.42 302.95 609.52 302.95 619.62 302.95 619.62 292.85 619.62 282.75 609.52 282.75"/><rect class="cls-9" x="638.89" y="262.56" width="10.1" height="10.1"/><polygon class="cls-2" points="669.19 262.56 659.09 262.56 648.99 262.56 648.99 272.66 638.89 272.66 638.89 282.75 648.99 282.75 659.09 282.75 669.19 282.75 679.28 282.75 679.28 272.66 679.28 262.56 669.19 262.56"/><polygon class="cls-1" points="669.19 282.75 659.09 282.75 648.99 282.75 638.89 282.75 638.89 292.85 638.89 302.95 648.99 302.95 659.09 302.95 669.19 302.95 679.28 302.95 679.28 292.85 679.28 282.75 669.19 282.75"/><rect class="cls-9" x="698.56" y="262.56" width="10.1" height="10.1"/><polygon class="cls-2" points="728.85 262.56 718.75 262.56 708.66 262.56 708.66 272.66 698.56 272.66 698.56 282.75 708.66 282.75 718.75 282.75 728.85 282.75 738.95 282.75 738.95 272.66 738.95 262.56 728.85 262.56"/><polygon class="cls-1" points="728.85 282.75 718.75 282.75 708.66 282.75 698.56 282.75 698.56 292.85 698.56 302.95 708.66 302.95 718.75 302.95 728.85 302.95 738.95 302.95 738.95 292.85 738.95 282.75 728.85 282.75"/><rect class="cls-9" x="121.18" y="201.93" width="10.1" height="10.1"/><polygon class="cls-2" points="151.48 201.93 141.38 201.93 131.28 201.93 131.28 212.03 121.18 212.03 121.18 222.13 131.28 222.13 141.38 222.13 151.48 222.13 161.57 222.13 161.57 212.03 161.57 201.93 151.48 201.93"/><polygon class="cls-1" points="151.48 222.13 141.38 222.13 131.28 222.13 121.18 222.13 121.18 232.22 121.18 242.32 131.28 242.32 141.38 242.32 151.48 242.32 161.57 242.32 161.57 232.22 161.57 222.13 151.48 222.13"/><rect class="cls-7" x="1194.56" y="383.77" width="10.1" height="10.1"/><polygon class="cls-9" points="1285.41 383.77 1275.31 383.77 1265.21 383.77 1255.15 383.77 1255.12 383.77 1245.05 383.77 1234.95 383.77 1224.86 383.77 1214.76 383.77 1204.66 383.77 1204.66 393.87 1194.56 393.87 1194.56 403.96 1204.66 403.96 1214.76 403.96 1224.86 403.96 1234.95 403.96 1245.05 403.96 1255.12 403.96 1255.15 403.96 1265.21 403.96 1275.31 403.96 1285.41 403.96 1295.51 403.96 1295.51 393.87 1295.51 383.77 1285.41 383.77"/><polygon class="cls-12" points="1285.41 403.96 1275.31 403.96 1265.21 403.96 1255.15 403.96 1255.12 403.96 1245.05 403.96 1234.95 403.96 1224.86 403.96 1214.76 403.96 1204.66 403.96 1194.56 403.96 1194.56 414.06 1194.56 424.16 1204.66 424.16 1214.76 424.16 1224.86 424.16 1234.95 424.16 1245.05 424.16 1255.12 424.16 1255.15 424.16 1265.21 424.16 1275.31 424.16 1285.41 424.16 1295.51 424.16 1295.51 414.06 1295.51 403.96 1285.41 403.96"/><polygon class="cls-7" points="1396.6 363.57 1386.5 363.57 1386.5 373.67 1396.6 373.67 1406.7 373.67 1406.7 363.57 1396.6 363.57"/><polygon class="cls-9" points="1406.7 323.19 1396.6 323.19 1386.5 323.19 1376.41 323.19 1376.41 333.28 1376.41 343.38 1376.41 353.48 1376.41 363.57 1376.41 373.67 1386.5 373.67 1386.5 363.57 1396.6 363.57 1406.7 363.57 1406.7 373.67 1416.8 373.67 1416.8 363.57 1416.8 353.48 1416.8 343.38 1416.8 333.28 1416.8 323.19 1406.7 323.19"/><polygon class="cls-12" points="1406.7 373.67 1396.6 373.67 1386.5 373.67 1376.41 373.67 1376.41 383.77 1376.41 393.87 1376.41 403.96 1376.41 414.06 1376.41 424.16 1386.5 424.16 1396.6 424.16 1406.7 424.16 1416.8 424.16 1416.8 414.06 1416.8 403.96 1416.8 393.87 1416.8 383.77 1416.8 373.67 1406.7 373.67"/><rect class="cls-7" x="1386.5" y="242.32" width="10.1" height="10.1"/><polygon class="cls-9" points="1406.7 201.93 1396.6 201.93 1386.5 201.93 1376.41 201.93 1376.41 212.03 1376.41 222.13 1376.41 232.22 1376.41 242.32 1376.41 252.42 1386.5 252.42 1386.5 242.32 1396.6 242.32 1396.6 252.42 1406.7 252.42 1416.8 252.42 1416.8 242.32 1416.8 232.22 1416.8 222.13 1416.8 212.03 1416.8 201.93 1406.7 201.93"/><polygon class="cls-12" points="1406.7 252.42 1396.6 252.42 1386.5 252.42 1376.41 252.42 1376.41 262.51 1376.41 272.61 1376.41 282.71 1376.41 292.81 1376.41 302.9 1386.5 302.9 1396.6 302.9 1406.7 302.9 1416.8 302.9 1416.8 292.81 1416.8 282.71 1416.8 272.61 1416.8 262.51 1416.8 252.42 1406.7 252.42"/><polygon class="cls-7" points="989.22 151.46 979.12 151.46 979.12 161.56 989.22 161.56 999.31 161.56 999.31 151.46 989.22 151.46"/><polygon class="cls-9" points="1009.41 141.36 999.31 141.36 989.22 141.36 979.12 141.36 979.12 151.46 989.22 151.46 999.31 151.46 999.31 161.56 1009.41 161.56 1019.51 161.56 1019.51 151.46 1019.51 141.36 1009.41 141.36"/><polygon class="cls-12" points="1009.41 161.56 999.31 161.56 989.22 161.56 979.12 161.56 979.12 171.66 979.12 181.75 989.22 181.75 999.31 181.75 1009.41 181.75 1019.51 181.75 1019.51 171.66 1019.51 161.56 1009.41 161.56"/><polygon class="cls-7" points="1053.36 151.46 1043.27 151.46 1043.27 161.56 1053.36 161.56 1063.46 161.56 1063.46 151.46 1053.36 151.46"/><polygon class="cls-9" points="1073.56 141.36 1063.46 141.36 1053.36 141.36 1043.27 141.36 1043.27 151.46 1053.36 151.46 1063.46 151.46 1063.46 161.56 1073.56 161.56 1083.66 161.56 1083.66 151.46 1083.66 141.36 1073.56 141.36"/><polygon class="cls-12" points="1073.56 161.56 1063.46 161.56 1053.36 161.56 1043.27 161.56 1043.27 171.66 1043.27 181.75 1053.36 181.75 1063.46 181.75 1073.56 181.75 1083.66 181.75 1083.66 171.66 1083.66 161.56 1073.56 161.56"/><polygon class="cls-7" points="1113.95 151.46 1103.85 151.46 1103.85 161.56 1113.95 161.56 1124.04 161.56 1124.04 151.46 1113.95 151.46"/><polygon class="cls-9" points="1134.14 141.36 1124.04 141.36 1113.95 141.36 1103.85 141.36 1103.85 151.46 1113.95 151.46 1124.04 151.46 1124.04 161.56 1134.14 161.56 1144.24 161.56 1144.24 151.46 1144.24 141.36 1134.14 141.36"/><polygon class="cls-12" points="1134.14 161.56 1124.04 161.56 1113.95 161.56 1103.85 161.56 1103.85 171.66 1103.85 181.75 1113.95 181.75 1124.04 181.75 1134.14 181.75 1144.24 181.75 1144.24 171.66 1144.24 161.56 1134.14 161.56"/><polygon class="cls-7" points="989.22 212.03 979.12 212.03 979.12 222.13 989.22 222.13 999.31 222.13 999.31 212.03 989.22 212.03"/><polygon class="cls-9" points="1009.41 201.93 999.31 201.93 989.22 201.93 979.12 201.93 979.12 212.03 989.22 212.03 999.31 212.03 999.31 222.13 1009.41 222.13 1019.51 222.13 1019.51 212.03 1019.51 201.93 1009.41 201.93"/><polygon class="cls-12" points="1009.41 222.13 999.31 222.13 989.22 222.13 979.12 222.13 979.12 232.22 979.12 242.32 989.22 242.32 999.31 242.32 1009.41 242.32 1019.51 242.32 1019.51 232.22 1019.51 222.13 1009.41 222.13"/><polygon class="cls-7" points="1053.36 212.03 1043.27 212.03 1043.27 222.13 1053.36 222.13 1063.46 222.13 1063.46 212.03 1053.36 212.03"/><polygon class="cls-9" points="1073.56 201.93 1063.46 201.93 1053.36 201.93 1043.27 201.93 1043.27 212.03 1053.36 212.03 1063.46 212.03 1063.46 222.13 1073.56 222.13 1083.66 222.13 1083.66 212.03 1083.66 201.93 1073.56 201.93"/><polygon class="cls-12" points="1073.56 222.13 1063.46 222.13 1053.36 222.13 1043.27 222.13 1043.27 232.22 1043.27 242.32 1053.36 242.32 1063.46 242.32 1073.56 242.32 1083.66 242.32 1083.66 232.22 1083.66 222.13 1073.56 222.13"/><polygon class="cls-7" points="1113.95 212.03 1103.85 212.03 1103.85 222.13 1113.95 222.13 1124.04 222.13 1124.04 212.03 1113.95 212.03"/><polygon class="cls-9" points="1134.14 201.93 1124.04 201.93 1113.95 201.93 1103.85 201.93 1103.85 212.03 1113.95 212.03 1124.04 212.03 1124.04 222.13 1134.14 222.13 1144.24 222.13 1144.24 212.03 1144.24 201.93 1134.14 201.93"/><polygon class="cls-12" points="1134.14 222.13 1124.04 222.13 1113.95 222.13 1103.85 222.13 1103.85 232.22 1103.85 242.32 1113.95 242.32 1124.04 242.32 1134.14 242.32 1144.24 242.32 1144.24 232.22 1144.24 222.13 1134.14 222.13"/><polygon class="cls-7" points="50.5 70.7 40.41 70.7 40.41 80.8 50.5 80.8 60.6 80.8 60.6 70.7 50.5 70.7"/><polygon class="cls-9" points="70.7 60.6 60.6 60.6 50.5 60.6 40.41 60.6 40.41 70.7 50.5 70.7 60.6 70.7 60.6 80.8 70.7 80.8 80.8 80.8 80.8 70.7 80.8 60.6 70.7 60.6"/><polygon class="cls-12" points="70.7 80.8 60.6 80.8 50.5 80.8 40.41 80.8 40.41 90.89 40.41 100.99 50.5 100.99 60.6 100.99 70.7 100.99 80.8 100.99 80.8 90.89 80.8 80.8 70.7 80.8"/><polygon class="cls-7" points="989.22 70.68 979.12 70.68 979.12 80.78 989.22 80.78 999.31 80.78 999.31 70.68 989.22 70.68"/><polygon class="cls-9" points="1009.41 60.59 999.31 60.59 989.22 60.59 979.12 60.59 979.12 70.68 989.22 70.68 999.31 70.68 999.31 80.78 1009.41 80.78 1019.51 80.78 1019.51 70.68 1019.51 60.59 1009.41 60.59"/><polygon class="cls-12" points="1009.41 80.78 999.31 80.78 989.22 80.78 979.12 80.78 979.12 90.88 979.12 100.97 989.22 100.97 999.31 100.97 1009.41 100.97 1019.51 100.97 1019.51 90.88 1019.51 80.78 1009.41 80.78"/><polygon class="cls-7" points="1204.66 151.46 1194.56 151.46 1194.56 161.56 1204.66 161.56 1214.76 161.56 1214.76 151.46 1204.66 151.46"/><polygon class="cls-9" points="1224.86 141.36 1214.76 141.36 1204.66 141.36 1194.56 141.36 1194.56 151.46 1204.66 151.46 1214.76 151.46 1214.76 161.56 1224.86 161.56 1234.95 161.56 1234.95 151.46 1234.95 141.36 1224.86 141.36"/><polygon class="cls-12" points="1224.86 161.56 1214.76 161.56 1204.66 161.56 1194.56 161.56 1194.56 171.66 1194.56 181.75 1204.66 181.75 1214.76 181.75 1224.86 181.75 1234.95 181.75 1234.95 171.66 1234.95 161.56 1224.86 161.56"/><polygon class="cls-7" points="1053.36 70.68 1043.27 70.68 1043.27 80.78 1053.36 80.78 1063.46 80.78 1063.46 70.68 1053.36 70.68"/><polygon class="cls-9" points="1073.56 60.59 1063.46 60.59 1053.36 60.59 1043.27 60.59 1043.27 70.68 1053.36 70.68 1063.46 70.68 1063.46 80.78 1073.56 80.78 1083.66 80.78 1083.66 70.68 1083.66 60.59 1073.56 60.59"/><polygon class="cls-12" points="1073.56 80.78 1063.46 80.78 1053.36 80.78 1043.27 80.78 1043.27 90.88 1043.27 100.97 1053.36 100.97 1063.46 100.97 1073.56 100.97 1083.66 100.97 1083.66 90.88 1083.66 80.78 1073.56 80.78"/><polygon class="cls-7" points="1113.95 70.68 1103.85 70.68 1103.85 80.78 1113.95 80.78 1124.04 80.78 1124.04 70.68 1113.95 70.68"/><polygon class="cls-9" points="1134.14 60.59 1124.04 60.59 1113.95 60.59 1103.85 60.59 1103.85 70.68 1113.95 70.68 1124.04 70.68 1124.04 80.78 1134.14 80.78 1144.24 80.78 1144.24 70.68 1144.24 60.59 1134.14 60.59"/><polygon class="cls-12" points="1134.14 80.78 1124.04 80.78 1113.95 80.78 1103.85 80.78 1103.85 90.88 1103.85 100.97 1113.95 100.97 1124.04 100.97 1134.14 100.97 1144.24 100.97 1144.24 90.88 1144.24 80.78 1134.14 80.78"/><rect class="cls-7" x="1265.21" y="151.46" width="10.1" height="10.1"/><polygon class="cls-9" points="1285.41 141.36 1275.31 141.36 1265.21 141.36 1255.12 141.36 1255.12 151.46 1255.12 161.56 1265.21 161.56 1265.21 151.46 1275.31 151.46 1275.31 161.56 1285.41 161.56 1295.51 161.56 1295.51 151.46 1295.51 141.36 1285.41 141.36"/><polygon class="cls-12" points="1285.41 161.56 1275.31 161.56 1265.21 161.56 1255.12 161.56 1255.12 171.66 1255.12 181.75 1265.21 181.75 1275.31 181.75 1285.41 181.75 1295.51 181.75 1295.51 171.66 1295.51 161.56 1285.41 161.56"/><rect class="cls-7" x="1386.5" y="151.46" width="10.1" height="10.1"/><polygon class="cls-9" points="1406.7 141.36 1396.6 141.36 1386.5 141.36 1376.41 141.36 1376.41 151.46 1376.41 161.56 1386.5 161.56 1386.5 151.46 1396.6 151.46 1396.6 161.56 1406.7 161.56 1416.8 161.56 1416.8 151.46 1416.8 141.36 1406.7 141.36"/><polygon class="cls-12" points="1406.7 161.56 1396.6 161.56 1386.5 161.56 1376.41 161.56 1376.41 171.66 1376.41 181.75 1386.5 181.75 1396.6 181.75 1406.7 181.75 1416.8 181.75 1416.8 171.66 1416.8 161.56 1406.7 161.56"/><rect class="cls-7" x="1325.77" y="151.46" width="10.1" height="10.1"/><polygon class="cls-9" points="1345.96 141.36 1335.86 141.36 1325.77 141.36 1315.67 141.36 1315.67 151.46 1315.67 161.56 1325.77 161.56 1325.77 151.46 1335.86 151.46 1335.86 161.56 1345.96 161.56 1356.06 161.56 1356.06 151.46 1356.06 141.36 1345.96 141.36"/><polygon class="cls-12" points="1345.96 161.56 1335.86 161.56 1325.77 161.56 1315.67 161.56 1315.67 171.66 1315.67 181.75 1325.77 181.75 1335.86 181.75 1345.96 181.75 1356.06 181.75 1356.06 171.66 1356.06 161.56 1345.96 161.56"/><rect class="cls-10" x="714.5" y="-682.05" width="28.19" height="1416.76" transform="translate(754.92 -702.26) rotate(90)"/><polygon class="cls-3" points="1457.18 20.21 1457.18 0 0 0 0 20.21 0 464.55 20.21 464.55 20.21 20.21 1436.97 20.21 1436.97 464.55 1457.18 464.55 1457.18 20.21 1457.18 20.21"/><rect class="cls-8" x="718.49" y="-274.14" width="20.21" height="1457.18" transform="translate(1183.04 -274.14) rotate(90)"/><polygon class="cls-9" points="124.55 262.56 107.71 262.56 90.88 262.56 74.07 262.56 74.05 262.56 57.24 262.56 40.41 262.56 40.41 266.78 40.41 266.78 40.41 282.75 80.8 282.75 90.88 282.75 107.71 282.75 124.55 282.75 141.38 282.75 141.38 272.66 141.38 262.56 124.55 262.56"/><polygon class="cls-7" points="97.64 272.66 97.62 272.66 84.17 272.66 70.7 272.66 70.7 282.75 84.17 282.75 97.62 282.75 97.64 282.75 111.09 282.75 111.09 272.66 97.64 272.66"/><rect class="cls-1" x="878.42" y="262.56" width="50.06" height="40.34"/><polygon class="cls-2" points="878.42 201.84 868.32 201.84 868.32 211.85 868.32 211.94 868.32 221.83 868.32 221.95 868.32 242.32 878.42 242.32 878.42 262.51 928.48 262.51 928.48 201.84 878.42 201.84"/><polygon class="cls-9" points="908.59 212.03 908.5 212.03 898.61 212.03 898.49 212.03 888.51 212.03 888.51 222.13 898.49 222.13 898.61 222.13 908.5 222.13 908.59 222.13 918.59 222.13 918.59 212.03 908.59 212.03"/><polygon class="cls-9" points="908.5 242.28 908.5 252.37 908.5 252.42 898.61 252.42 888.51 252.42 888.51 262.51 898.61 262.51 908.71 262.51 908.71 262.47 918.59 262.47 918.59 252.37 918.59 242.28 908.5 242.28"/></g></svg>